<?xml version="1.0" encoding="UTF-8" standalone="no"?>
<svg
   xmlns:dc="http://purl.org/dc/elements/1.1/"
   xmlns:cc="http://creativecommons.org/ns#"
   xmlns:rdf="http://www.w3.org/1999/02/22-rdf-syntax-ns#"
   xmlns:svg="http://www.w3.org/2000/svg"
   xmlns="http://www.w3.org/2000/svg"
   xmlns:xlink="http://www.w3.org/1999/xlink"
   xmlns:sodipodi="http://sodipodi.sourceforge.net/DTD/sodipodi-0.dtd"
   xmlns:inkscape="http://www.inkscape.org/namespaces/inkscape"
   version="1.1"
   preserveAspectRatio="xMidYMid meet"
   viewBox="0 0 1920 1080"
   width="1920"
   height="1080"
   id="svg368"
   sodipodi:docname="book.svg"
   inkscape:version="1.0 (4035a4fb49, 2020-05-01)">
  <metadata
     id="metadata372">
    <rdf:RDF>
      <cc:Work
         rdf:about="">
        <dc:format>image/svg+xml</dc:format>
        <dc:type
           rdf:resource="http://purl.org/dc/dcmitype/StillImage" />
      </cc:Work>
    </rdf:RDF>
  </metadata>
  <sodipodi:namedview
     inkscape:document-rotation="0"
     pagecolor="#ffffff"
     bordercolor="#666666"
     borderopacity="1"
     objecttolerance="10"
     gridtolerance="10"
     guidetolerance="10"
     inkscape:pageopacity="0"
     inkscape:pageshadow="2"
     inkscape:window-width="1366"
     inkscape:window-height="705"
     id="namedview370"
     showgrid="false"
     inkscape:zoom="0.24907407"
     inkscape:cx="858.36389"
     inkscape:cy="467.93134"
     inkscape:window-x="-8"
     inkscape:window-y="-8"
     inkscape:window-maximized="1"
     inkscape:current-layer="g366" />
  <defs
     id="defs42">
    <path
       d="M1631.86 706.19C1631.86 706.19 1631.85 706.19 1631.84 706.19C1630.73 706.72 1629.62 707.23 1628.5 707.72C1628.5 707.72 1628.49 707.72 1628.48 707.72L1628.47 707.73L1628.45 707.72C1628.45 707.72 1628.44 707.72 1628.44 707.72C1628.44 707.72 1628.43 707.73 1628.43 707.73C1628.43 707.73 1628.43 707.73 1628.43 707.73C1628.42 707.73 1628.42 707.73 1628.41 707.73C1628.4 707.72 1628.4 707.72 1628.4 707.72C1628.38 707.73 1628.38 707.73 1628.37 707.72C1628.37 707.72 1628.36 707.72 1628.35 707.73L1628.34 707.72C1628.33 707.72 1628.33 707.72 1628.33 707.72C1628.31 707.73 1628.31 707.73 1628.3 707.72C1628.3 707.72 1628.28 707.72 1628.28 707.72C1620.38 711.13 1612.26 714.03 1603.98 716.39C1555.3 730.19 1504.12 732.86 1454.26 724.2C1453.31 724.03 1452.37 723.86 1451.41 723.69C1451.41 712.15 1451.41 619.85 1451.41 608.31C1452.35 607.92 1453.31 607.52 1454.26 607.13C1463.6 603.27 1471.27 600.75 1473.16 600.04C1486.92 595.34 1498.28 592.79 1501.07 591.98C1531.83 584.55 1563.58 581.99 1595.14 584.39C1603.75 585.03 1610.6 586.05 1612.32 586.24C1624.27 587.9 1636.8 590.8 1647.83 595.84C1647.83 595.84 1647.84 595.84 1647.84 595.84C1649.45 596.59 1651.03 597.38 1652.6 598.21C1662.4 603.52 1670.66 610.82 1675.7 620.82C1677.51 624.41 1678.82 628.23 1679.58 632.18C1679.58 632.19 1679.58 632.21 1679.58 632.21C1679.86 633.58 1680.06 634.96 1680.22 636.32C1682.01 653.16 1675.02 671.19 1663.32 683.96C1654.55 693.53 1643.67 700.66 1631.86 706.19Z"
       id="e88vAxfMl" />
    <path
       d="M1679.79 636.38C1655.39 637.45 1631.02 639.03 1606.69 641.13C1606.66 641.13 1606.65 641.13 1606.65 641.13C1606.55 641.14 1606.46 641.14 1606.36 641.16C1568.88 644.4 1539.04 648.47 1531.56 649.28C1530.51 649.42 1529.47 649.57 1528.43 649.69C1502.62 653.13 1482.06 656.56 1476.91 657.32C1465.56 659.17 1456.53 660.8 1454.26 661.19C1453.31 661.36 1452.37 661.51 1451.41 661.7C1451.41 661.27 1451.41 657.82 1451.41 657.39C1452.37 657.2 1453.32 657.05 1454.26 656.88C1491.91 650.22 1522.26 646.42 1529.81 645.26C1539.34 643.98 1546.99 643.08 1548.9 642.84C1576.5 639.51 1598.67 637.67 1604.2 637.09C1605.55 636.98 1606.89 636.86 1608.24 636.75C1643.69 633.74 1672.14 632.64 1679.23 632.18C1679.35 632.18 1679.46 632.19 1679.58 632.21C1681.86 632.41 1682.34 635.82 1680.22 636.32C1680.08 636.36 1679.93 636.38 1679.79 636.38Z"
       id="abt9rXVll" />
    <path
       d="M1547.7 669.57C1541.63 663.54 1536.29 656.82 1531.77 649.56C1530.32 647.24 1526.93 649.8 1528.37 652.1C1545.07 678.84 1572.88 697.89 1603.55 704.9C1612.25 706.87 1621.16 707.82 1630.09 707.73C1632.82 707.71 1632.25 703.5 1629.55 703.52C1599.15 703.75 1569.2 690.88 1547.7 669.57Z"
       id="b2vyVlYOf7" />
    <path
       d="M1499.29 593.59C1492.32 595.41 1485.59 598.04 1479.23 601.42C1469.95 606.31 1461.51 612.68 1454.26 620.26C1453.88 620.65 1453.51 621.03 1453.15 621.43C1452.55 622.06 1451.98 622.7 1451.41 623.35C1451.41 622.73 1451.41 617.77 1451.41 617.15C1452.32 616.18 1453.28 615.23 1454.26 614.32C1459.99 608.84 1466.33 604.05 1473.16 600.04C1482.34 596.91 1491.64 594.22 1501.07 591.98C1500.44 592.93 1499.85 593.47 1499.29 593.59Z"
       id="c2dJQ1pOSi" />
    <path
       d="M1604.16 635.38C1603.71 636.46 1604.22 637.7 1605.29 638.16C1606.37 638.59 1607.6 638.09 1608.08 637.03C1618.26 619.92 1633.62 606.48 1651.94 598.65C1654.46 597.58 1652.87 593.64 1650.35 594.72C1631.01 603.02 1614.83 617.26 1604.16 635.38Z"
       id="beeUbbV8" />
    <path
       d="M1691.11 508.19C1691.11 508.19 1691.1 508.2 1691.1 508.2C1690.37 509.17 1689.62 510.15 1688.84 511.09C1688.84 511.09 1688.84 511.1 1688.84 511.1C1683.37 517.83 1677.46 524.19 1671.16 530.15C1648.5 551.71 1622.91 569.97 1595.14 584.39C1551.45 607.18 1502.62 620.65 1454.26 621.42C1453.89 621.43 1453.52 621.43 1453.15 621.43C1452.57 621.44 1451.98 621.44 1451.41 621.44C1451.41 614.98 1451.41 563.26 1451.41 556.79C1452.34 555.03 1453.29 553.26 1454.26 551.51C1466.83 528.93 1482.15 507.99 1499.89 489.18C1500.31 488.71 1500.75 488.24 1501.2 487.79C1511.2 477.25 1520.07 469.72 1522.16 467.72C1550.29 443.02 1582.8 423.79 1618.01 411.03C1629.37 406.96 1641.81 403.71 1653.92 403.07C1655.7 402.97 1657.47 402.92 1659.25 402.94C1670.4 403.09 1681.1 405.73 1690.23 412.24C1693.5 414.59 1696.43 417.37 1698.95 420.51C1699.83 421.6 1700.64 422.72 1701.43 423.88C1701.43 423.88 1701.43 423.89 1701.43 423.89C1710.86 437.97 1713.05 457.16 1708.63 473.9C1705.33 486.45 1698.99 497.82 1691.11 508.19Z"
       id="d25GuqVnLs" />
    <path
       d="M1701.43 423.89C1701.32 423.98 1701.21 424.06 1701.09 424.13C1669.46 442.5 1644.88 458.4 1638.64 462.21C1638.61 462.23 1638.6 462.24 1638.57 462.25C1638.49 462.31 1638.4 462.36 1638.31 462.41C1606.62 482.68 1582.08 500.13 1575.84 504.32C1574.98 504.91 1574.11 505.53 1573.24 506.14C1551.98 521.14 1535.37 533.71 1531.17 536.78C1491.85 566.35 1461.95 591.98 1454.26 598.11C1453.31 598.91 1452.37 599.72 1451.41 600.53C1451.41 599.98 1451.41 595.55 1451.41 595C1452.35 594.19 1453.31 593.38 1454.26 592.58C1468.66 580.44 1480.41 571.04 1483.32 568.64C1486.24 566.29 1489.17 563.95 1492.11 561.63C1518.18 540.9 1544.83 520.95 1572.06 501.77C1572.07 501.77 1572.07 501.77 1572.08 501.77C1580.11 496.12 1586.56 491.68 1588.17 490.56C1611.08 474.82 1629.86 462.9 1634.49 459.82C1635.62 459.1 1636.76 458.37 1637.9 457.65C1667.88 438.53 1692.56 424.36 1698.64 420.66C1698.74 420.6 1698.84 420.55 1698.95 420.51C1701.09 419.65 1703.09 422.47 1701.43 423.88C1701.43 423.88 1701.43 423.89 1701.43 423.89Z"
       id="cgzY90W20" />
    <path
       d="M1599.55 514.8C1591.37 512.27 1583.51 508.8 1576.13 504.46C1573.77 503.08 1571.96 506.92 1574.3 508.29C1601.53 524.23 1635.02 528.19 1665.43 520.17C1674.06 517.88 1682.39 514.59 1690.26 510.37C1692.67 509.09 1690.21 505.62 1687.82 506.9C1661.01 521.19 1628.5 523.69 1599.55 514.8Z"
       id="cx4jDxOer" />
    <path
       d="M1485.84 536.37C1486.8 519.15 1492.08 502.44 1501.2 487.79C1511.21 477.25 1520.07 469.72 1522.17 467.72C1522.31 468.56 1521.99 469.42 1521.33 469.97C1516.01 474.82 1511.28 480.26 1507.21 486.2C1492.7 507.35 1487.04 533.33 1491.43 558.59C1491.57 559.17 1491.4 559.79 1490.98 560.22C1490.02 561.05 1488.56 560.95 1487.72 559.99C1487.46 559.69 1487.28 559.33 1487.2 558.94C1485.87 551.5 1485.41 543.92 1485.84 536.37Z"
       id="ibo4Czgms" />
    <path
       d="M1633.65 458.32C1633.75 459.49 1634.77 460.35 1635.94 460.26C1637.09 460.14 1637.95 459.13 1637.88 457.97C1638.94 438.1 1646.29 419.07 1658.87 403.63C1660.6 401.52 1657.36 398.77 1655.63 400.89C1642.37 417.21 1634.66 437.33 1633.65 458.32Z"
       id="aFgyq8JwX" />
    <path
       d="M1508.12 447.65C1508.02 448.87 1507.91 450.08 1507.78 451.29C1507.78 451.29 1507.78 451.31 1507.78 451.32C1506.79 459.92 1505.24 468.46 1503.15 476.86C1502.15 480.99 1501.07 485.09 1499.89 489.18C1499.74 489.71 1499.59 490.23 1499.43 490.75C1499.43 490.75 1499.43 490.76 1499.43 490.76C1495.95 502.68 1491.79 514.38 1486.98 525.82C1478.12 546.89 1467.16 567.01 1454.26 585.88C1453.34 587.26 1452.38 588.64 1451.41 590.01C1451.41 567.73 1451.41 389.52 1451.41 367.25C1452.37 367.19 1453.31 367.19 1454.26 367.22C1454.94 367.22 1455.49 367.26 1455.63 367.26C1459.65 367.47 1463.62 368.24 1467.42 369.55C1468.76 369.99 1470.06 370.49 1471.34 371.05C1486.88 377.85 1499.09 392.84 1504.39 409.32C1508.36 421.67 1509.16 434.66 1508.12 447.63C1508.12 447.63 1508.12 447.64 1508.12 447.65Z"
       id="c12ppCs8Id" />
    <path
       d="M1471.18 371.44C1462.53 388.24 1455.95 401.82 1454.26 405.2C1453.31 407.15 1452.35 409.11 1451.41 411.06C1451.41 410.09 1451.41 402.35 1451.41 401.39C1452.82 398.49 1453.98 396.16 1454.26 395.58C1460.65 382.65 1465.95 372.41 1467.25 369.84C1467.3 369.74 1467.36 369.64 1467.42 369.55C1468.73 367.67 1471.98 368.95 1471.34 371.05C1471.31 371.19 1471.25 371.32 1471.18 371.44Z"
       id="b1c9TmVhNT" />
    <path
       d="M1507.78 451.29C1503.59 458.57 1498.62 465.36 1492.93 471.54C1482.02 483.37 1468.88 492.92 1454.26 499.67C1453.32 500.12 1452.37 500.55 1451.41 500.95C1451.41 500.48 1451.41 496.79 1451.41 496.32C1452.37 495.9 1453.32 495.46 1454.26 495C1475.42 484.92 1493 468.63 1504.64 448.31C1505.29 447.2 1506.72 446.81 1507.84 447.46C1507.94 447.52 1508.03 447.58 1508.12 447.65C1508.87 448.15 1509.08 449.17 1508.58 449.92C1508.58 449.92 1508.57 449.92 1508.57 449.92C1508.32 450.38 1508.06 450.83 1507.78 451.29Z"
       id="b2JnBmTJT" />
    <path
       d="M1454.26 301.16L1451.41 301.16L1451.41 300.01L498.47 300.01L498.47 301.16L495.63 301.16C495.63 236.3 495.63 200.26 495.63 193.05C495.65 167.14 516.68 146.14 542.63 146.11C629.09 146.11 1320.79 146.11 1407.26 146.11C1433.21 146.14 1454.24 167.14 1454.26 193.05C1454.26 193.05 1454.26 229.09 1454.26 301.16Z"
       id="d1oPYWZdbt" />
    <path
       d="M542.63 146.11C516.68 146.14 495.65 167.14 495.63 193.05C495.63 254.79 495.63 748.67 495.63 810.4C495.65 836.32 516.68 857.32 542.63 857.35C629.09 857.35 1320.79 857.35 1407.26 857.35C1433.21 857.32 1454.24 836.32 1454.26 810.4C1454.26 748.67 1454.26 254.79 1454.26 193.05C1454.24 167.14 1433.21 146.14 1407.26 146.11C1407.26 146.11 629.09 146.11 542.63 146.11ZM1451.41 810.4C1451.38 834.75 1431.63 854.47 1407.26 854.5C1320.79 854.5 629.09 854.5 542.63 854.5C518.26 854.47 498.5 834.75 498.47 810.4C498.47 748.67 498.47 254.79 498.47 193.05C498.5 168.71 518.26 148.99 542.63 148.96C629.09 148.96 1320.79 148.96 1407.26 148.96C1431.63 148.99 1451.38 168.71 1451.41 193.05C1451.41 316.52 1451.41 686.93 1451.41 810.4Z"
       id="b5WnULI4Aa" />
    <path
       d="M689.35 195.19C673.61 195.19 660.86 207.92 660.86 223.64C660.86 239.35 673.61 252.08 689.35 252.08C705.08 252.08 717.83 239.35 717.83 223.64C717.83 207.92 705.08 195.19 689.35 195.19Z"
       id="a3S37nDWkw" />
    <path
       d="M1260.54 195.19C1244.81 195.19 1232.05 207.92 1232.05 223.64C1232.05 239.35 1244.81 252.08 1260.54 252.08C1276.27 252.08 1289.03 239.35 1289.03 223.64C1289.03 207.92 1276.27 195.19 1260.54 195.19Z"
       id="e7na83hqmx" />
    <path
       d="M602.18 540.85C587.23 540.83 575.12 528.73 575.1 513.81C575.1 505.81 575.1 441.82 575.1 433.82C575.12 418.89 587.23 406.79 602.18 406.77C619.13 406.77 754.71 406.77 771.66 406.77C786.61 406.79 798.72 418.89 798.74 433.82C798.74 441.82 798.74 505.81 798.74 513.81C798.72 528.73 786.61 540.83 771.66 540.85C771.66 540.85 619.13 540.85 602.18 540.85Z"
       id="atuyH5qBw" />
    <path
       d="M890.48 540.85C875.54 540.83 863.42 528.73 863.4 513.81C863.4 505.81 863.4 441.82 863.4 433.82C863.42 418.89 875.54 406.79 890.48 406.77C907.43 406.77 1043.01 406.77 1059.96 406.77C1074.91 406.79 1087.02 418.89 1087.04 433.82C1087.04 441.82 1087.04 505.81 1087.04 513.81C1087.02 528.73 1074.91 540.83 1059.96 540.85C1059.96 540.85 907.43 540.85 890.48 540.85Z"
       id="a10uNZB4c1" />
    <path
       d="M890.48 747.52C875.08 747.5 862.6 735.04 862.58 719.66C862.58 711.66 862.58 647.67 862.58 639.67C862.6 624.29 875.08 611.82 890.48 611.81C907.43 611.81 1043.01 611.81 1059.96 611.81C1075.36 611.82 1087.84 624.29 1087.86 639.67C1087.86 647.67 1087.86 711.66 1087.86 719.66C1087.84 735.04 1075.36 747.5 1059.96 747.52C1059.96 747.52 907.43 747.52 890.48 747.52Z"
       id="d71ybBNzQ" />
    <path
       d="M601.63 747.52C586.23 747.5 573.74 735.04 573.73 719.66C573.73 711.66 573.73 647.67 573.73 639.67C573.74 624.29 586.23 611.82 601.63 611.81C618.58 611.81 754.15 611.81 771.1 611.81C786.5 611.82 798.98 624.29 799 639.67C799 647.67 799 711.66 799 719.66C798.98 735.04 786.5 747.5 771.1 747.52C771.1 747.52 618.58 747.52 601.63 747.52Z"
       id="c7h8Ja8TAD" />
    <path
       d="M1178.79 747.52C1163.38 747.5 1150.9 735.04 1150.88 719.66C1150.88 711.66 1150.88 647.67 1150.88 639.67C1150.9 624.29 1163.38 611.82 1178.79 611.81C1195.73 611.81 1331.31 611.81 1348.26 611.81C1363.66 611.82 1376.14 624.29 1376.16 639.67C1376.16 647.67 1376.16 711.66 1376.16 719.66C1376.14 735.04 1363.66 747.5 1348.26 747.52C1348.26 747.52 1195.73 747.52 1178.79 747.52Z"
       id="e6UqxBI2Oe" />
    <path
       d="M1178.79 541.01C1163.38 540.99 1150.9 528.53 1150.88 513.15C1150.88 505.15 1150.88 441.16 1150.88 433.16C1150.9 417.78 1163.38 405.31 1178.79 405.29C1195.73 405.29 1331.31 405.29 1348.26 405.29C1363.66 405.31 1376.14 417.78 1376.16 433.16C1376.16 441.16 1376.16 505.15 1376.16 513.15C1376.14 528.53 1363.66 540.99 1348.26 541.01C1314.36 541.01 1195.73 541.01 1178.79 541.01Z"
       id="a1DEqirxg1" />
    <path
       d="M686.92 427.92C661.54 427.92 640.97 448.47 640.97 473.81C640.97 499.16 661.54 519.7 686.92 519.7C712.3 519.7 732.87 499.16 732.87 473.81C732.87 448.47 712.3 427.92 686.92 427.92Z"
       id="akdLleMPt" />
    <path
       d="M679.5 490.37C679.49 490.36 679.48 490.35 679.45 490.33C672.97 485.37 669.37 482.62 668.65 482.07C666.54 480.46 666.14 477.46 667.75 475.35C669.36 473.25 672.37 472.85 674.47 474.46C674.48 474.46 674.48 474.46 674.48 474.46C674.95 474.82 677.28 476.61 681.48 479.82C691.4 466.9 696.91 459.73 698.01 458.29C699.62 456.19 702.63 455.79 704.74 457.4C704.74 457.4 704.74 457.4 704.74 457.4C704.73 457.41 704.69 457.46 704.63 457.54C704.7 457.46 704.73 457.42 704.74 457.41C706.84 459.02 707.24 462.02 705.63 464.12C703.68 466.66 688.13 486.92 686.18 489.45C685.27 490.63 683.86 491.32 682.36 491.32C681.33 491.32 680.32 490.99 679.5 490.37Z"
       id="e1qz86zjng" />
    <path
       d="M976.04 427.26C950.66 427.26 930.09 447.81 930.09 473.15C930.09 498.5 950.66 519.04 976.04 519.04C1001.42 519.04 1022 498.5 1022 473.15C1022 447.81 1001.42 427.26 976.04 427.26Z"
       id="a4deJ99KU" />
    <path
       d="M968.62 489.71C968.62 489.7 968.6 489.69 968.57 489.67C962.09 484.71 958.49 481.96 957.77 481.41C955.66 479.8 955.27 476.79 956.88 474.69C958.49 472.59 961.5 472.2 963.6 473.8C964.07 474.16 966.4 475.95 970.6 479.16C980.52 466.24 986.03 459.07 987.13 457.63C988.74 455.53 991.75 455.14 993.86 456.75C993.86 456.75 993.86 456.75 993.86 456.75C993.85 456.75 993.82 456.8 993.75 456.89C993.82 456.8 993.85 456.76 993.86 456.75C995.96 458.36 996.36 461.36 994.75 463.47C992.8 466 977.25 486.26 975.3 488.79C974.39 489.97 972.98 490.66 971.49 490.66C970.45 490.66 969.45 490.33 968.62 489.71Z"
       id="k1lDST2dlv" />
    <path
       d="M1285.66 668.12C1284.99 667.51 1284.28 666.96 1283.51 666.48C1281.8 657.36 1273.25 611.76 1257.86 529.68L1226.66 541.23C1247.68 619.74 1259.35 663.35 1261.69 672.07C1257.63 679.53 1260.39 688.86 1267.85 692.91C1274.1 696.3 1281.86 694.98 1286.62 689.71C1292.33 683.48 1291.9 673.81 1285.66 668.12Z"
       id="bIT16LVDo" />
    <path
       d="M1037.69 483.52C1041.73 486.62 1061.95 502.17 1098.35 530.14L1115.56 523.09L1129.61 547.63C1112.07 556.89 1102.32 562.04 1100.37 563.07C1095.52 565.63 1089.56 564.69 1085.73 560.76C1079.67 554.51 1031.16 504.57 1025.1 498.32C1016.37 500.29 1007.69 494.82 1005.72 486.1C1003.75 477.38 1009.24 468.72 1017.97 466.75C1026.69 464.79 1035.37 470.26 1037.34 478.98C1037.48 479.63 1037.59 480.29 1037.66 480.96C1037.73 481.81 1037.74 482.66 1037.69 483.52Z"
       id="asTqvOrbe" />
    <path
       d="M1161.93 932.52L1153.62 879.48L1179.39 879.48L1179.39 932.52L1179.39 932.52L1161.93 932.52Z"
       id="a1PNK17uwX" />
    <path
       d="M1183.84 949.43L1127.53 949.43C1127.53 949 1127.53 948.76 1127.53 948.71C1127.53 936.63 1137.35 926.83 1149.45 926.83C1149.45 926.83 1149.45 926.83 1149.45 926.83C1149.45 926.83 1149.45 926.83 1149.45 926.83L1183.84 926.83L1183.84 949.43Z"
       id="aLYHbA3Hw" />
    <path
       d="M1227.45 932.52L1219.14 879.48L1244.92 879.48L1244.91 932.52L1244.91 932.52L1227.45 932.52Z"
       id="eMeBl62A" />
    <path
       d="M1249.37 949.43L1193.06 949.43C1193.06 949 1193.06 948.76 1193.06 948.71C1193.06 936.63 1202.87 926.83 1214.97 926.83C1214.97 926.83 1214.97 926.83 1214.97 926.83C1214.97 926.83 1214.97 926.83 1214.98 926.83L1249.37 926.83L1249.37 949.43Z"
       id="dFmoPq0TO" />
    <path
       d="M1151.93 916.25C1150.91 902.62 1145.84 834.49 1136.71 711.85L1137.43 711.79L1242.15 703.2L1242.18 703.94C1247.17 830.98 1249.95 901.56 1250.5 915.68C1250.64 919.21 1247.88 922.18 1244.34 922.31C1244.26 922.32 1244.18 922.32 1244.1 922.32C1242.05 922.32 1225.62 922.32 1223.56 922.32C1220.4 922.33 1217.7 920.02 1217.23 916.89C1214.44 899.79 1192.13 762.95 1189.35 745.84C1189.29 745.46 1188.92 745.19 1188.53 745.25C1188.19 745.3 1187.93 745.6 1187.93 745.95C1187.8 762.84 1186.79 897.94 1186.66 914.83C1186.64 918.21 1183.98 920.99 1180.59 921.18C1178.4 921.26 1160.84 921.94 1158.64 922.03C1158.53 922.04 1158.41 922.04 1158.3 922.04C1155 922.04 1152.23 919.53 1151.93 916.25Z"
       id="hntex74e" />
    <path
       d="M1176.17 383.67C1156.85 383.67 1141.19 399.31 1141.19 418.61C1141.19 437.9 1156.85 453.54 1176.17 453.54C1195.5 453.54 1211.16 437.9 1211.16 418.61C1211.16 399.31 1195.5 383.67 1176.17 383.67Z"
       id="cb2fdZ8N0" />
    <path
       d="M1137.7 718.71C1134.77 717.86 1132.85 715.08 1133.09 712.05C1137.8 641.36 1138.9 586.5 1129 548.55C1124.78 532.37 1126.69 515.33 1134.26 501.81C1145.64 481.45 1166.56 469.05 1188.87 469.48C1188.87 469.48 1188.87 469.48 1188.87 469.48C1190.47 469.51 1191.78 469.58 1192.1 469.6C1225.96 471.34 1252.35 501.93 1250.92 537.79C1250.24 554.89 1244.79 691.63 1244.11 708.73C1244.06 711.28 1242.48 713.55 1240.1 714.48C1221.83 721.34 1202.47 724.87 1182.95 724.89C1167.66 724.84 1152.44 722.77 1137.7 718.71Z"
       id="a6nThf2O1X" />
    <path
       d="M1108.55 529.6C1105.68 526.1 1106.21 520.93 1109.72 518.07C1110.03 517.82 1110.36 517.59 1110.71 517.38C1114.26 515.27 1142.66 498.37 1146.21 496.26C1156 488.36 1170.35 489.9 1178.26 499.68C1186.13 509.43 1184.64 523.7 1174.92 531.61C1172.15 534.65 1149.95 558.97 1147.18 562.01C1144.12 565.36 1138.93 565.6 1135.58 562.55C1135.29 562.28 1135.01 561.98 1134.76 561.67C1134.76 561.67 1111.17 532.81 1108.55 529.6Z"
       id="e1SOdFuCkL" />
    <path
       d="M1212.69 552.52C1211.51 548.58 1202.07 517.05 1200.89 513.11C1195.55 501.73 1200.46 488.17 1211.86 482.84C1223.21 477.53 1236.74 482.37 1242.12 493.69C1244.4 497.13 1262.65 524.66 1264.93 528.1C1267.43 531.87 1266.4 536.96 1262.62 539.46C1262.28 539.68 1261.93 539.87 1261.57 540.04C1257.81 541.8 1227.78 555.84 1224.03 557.59C1221.87 558.6 1219.37 558.62 1217.19 557.65C1215.02 556.68 1213.37 554.8 1212.69 552.52Z"
       id="d6qvzijGiA" />
    <path
       d="M1193.46 447.27C1177.9 443.72 1169.26 441.74 1167.53 441.34C1164.85 440.73 1161.64 439.57 1161.27 436.85C1160.77 433.2 1166.03 430.66 1165.54 427.01C1165.07 423.47 1160.28 423.02 1156.87 421.97C1150.26 419.66 1146.68 412.52 1148.79 405.84C1145.09 411.04 1136.65 411.49 1131.86 407.28C1127.06 403.06 1126.15 395.42 1129.02 389.73C1132.18 384.05 1137.85 380.23 1144.3 379.43C1150.69 378.7 1157.15 379.91 1162.85 382.88C1163.23 378.85 1168.27 377.22 1172.32 377.18C1189.58 377.38 1204.82 388.49 1210.27 404.84C1215.25 420.85 1211.92 438.39 1198 447.76C1197.4 447.69 1195.88 447.53 1193.46 447.27Z"
       id="c3uvAAaTXC" />
    <path
       d="M911.97 949.81C911.18 949.81 910.54 949.17 910.54 948.38C910.54 947.6 911.18 946.96 911.97 946.96C966.24 946.96 1400.4 946.96 1454.67 946.96C1455.46 946.96 1456.1 947.6 1456.1 948.38C1456.1 949.17 1455.46 949.81 1454.67 949.81C1346.13 949.81 966.24 949.81 911.97 949.81Z"
       id="adcd89jDb" />
  </defs>
  <g
     id="g366">
    <g
       transform="matrix(0.93067979,0,0,0.92016507,-29.918043,136.08836)"
       id="g364">
      <g
         id="g50">
        <use
           height="100%"
           width="100%"
           y="0"
           x="0"
           xlink:href="#e88vAxfMl"
           opacity="1"
           fill="#f2f2f2"
           fill-opacity="1"
           id="use44" />
        <g
           id="g48">
          <use
             height="100%"
             width="100%"
             y="0"
             x="0"
             xlink:href="#e88vAxfMl"
             opacity="1"
             fill-opacity="0"
             stroke="#000000"
             stroke-width="1"
             stroke-opacity="0"
             id="use46" />
        </g>
      </g>
      <g
         id="g58">
        <use
           height="100%"
           width="100%"
           y="0"
           x="0"
           xlink:href="#abt9rXVll"
           opacity="1"
           fill="#ffffff"
           fill-opacity="1"
           id="use52" />
        <g
           id="g56">
          <use
             height="100%"
             width="100%"
             y="0"
             x="0"
             xlink:href="#abt9rXVll"
             opacity="1"
             fill-opacity="0"
             stroke="#000000"
             stroke-width="1"
             stroke-opacity="0"
             id="use54" />
        </g>
      </g>
      <g
         id="g66">
        <use
           height="100%"
           width="100%"
           y="0"
           x="0"
           xlink:href="#b2vyVlYOf7"
           opacity="1"
           fill="#ffffff"
           fill-opacity="1"
           id="use60" />
        <g
           id="g64">
          <use
             height="100%"
             width="100%"
             y="0"
             x="0"
             xlink:href="#b2vyVlYOf7"
             opacity="1"
             fill-opacity="0"
             stroke="#000000"
             stroke-width="1"
             stroke-opacity="0"
             id="use62" />
        </g>
      </g>
      <g
         id="g74">
        <use
           height="100%"
           width="100%"
           y="0"
           x="0"
           xlink:href="#c2dJQ1pOSi"
           opacity="1"
           fill="#ffffff"
           fill-opacity="1"
           id="use68" />
        <g
           id="g72">
          <use
             height="100%"
             width="100%"
             y="0"
             x="0"
             xlink:href="#c2dJQ1pOSi"
             opacity="1"
             fill-opacity="0"
             stroke="#000000"
             stroke-width="1"
             stroke-opacity="0"
             id="use70" />
        </g>
      </g>
      <g
         id="g82">
        <use
           height="100%"
           width="100%"
           y="0"
           x="0"
           xlink:href="#beeUbbV8"
           opacity="1"
           fill="#ffffff"
           fill-opacity="1"
           id="use76" />
        <g
           id="g80">
          <use
             height="100%"
             width="100%"
             y="0"
             x="0"
             xlink:href="#beeUbbV8"
             opacity="1"
             fill-opacity="0"
             stroke="#000000"
             stroke-width="1"
             stroke-opacity="0"
             id="use78" />
        </g>
      </g>
      <g
         id="g90">
        <use
           height="100%"
           width="100%"
           y="0"
           x="0"
           xlink:href="#d25GuqVnLs"
           opacity="1"
           fill="#f2f2f2"
           fill-opacity="1"
           id="use84" />
        <g
           id="g88">
          <use
             height="100%"
             width="100%"
             y="0"
             x="0"
             xlink:href="#d25GuqVnLs"
             opacity="1"
             fill-opacity="0"
             stroke="#000000"
             stroke-width="1"
             stroke-opacity="0"
             id="use86" />
        </g>
      </g>
      <g
         id="g98">
        <use
           height="100%"
           width="100%"
           y="0"
           x="0"
           xlink:href="#cgzY90W20"
           opacity="1"
           fill="#ffffff"
           fill-opacity="1"
           id="use92" />
        <g
           id="g96">
          <use
             height="100%"
             width="100%"
             y="0"
             x="0"
             xlink:href="#cgzY90W20"
             opacity="1"
             fill-opacity="0"
             stroke="#000000"
             stroke-width="1"
             stroke-opacity="0"
             id="use94" />
        </g>
      </g>
      <g
         id="g106">
        <use
           height="100%"
           width="100%"
           y="0"
           x="0"
           xlink:href="#cx4jDxOer"
           opacity="1"
           fill="#ffffff"
           fill-opacity="1"
           id="use100" />
        <g
           id="g104">
          <use
             height="100%"
             width="100%"
             y="0"
             x="0"
             xlink:href="#cx4jDxOer"
             opacity="1"
             fill-opacity="0"
             stroke="#000000"
             stroke-width="1"
             stroke-opacity="0"
             id="use102" />
        </g>
      </g>
      <g
         id="g114">
        <use
           height="100%"
           width="100%"
           y="0"
           x="0"
           xlink:href="#ibo4Czgms"
           opacity="1"
           fill="#ffffff"
           fill-opacity="1"
           id="use108" />
        <g
           id="g112">
          <use
             height="100%"
             width="100%"
             y="0"
             x="0"
             xlink:href="#ibo4Czgms"
             opacity="1"
             fill-opacity="0"
             stroke="#000000"
             stroke-width="1"
             stroke-opacity="0"
             id="use110" />
        </g>
      </g>
      <g
         id="g122">
        <use
           height="100%"
           width="100%"
           y="0"
           x="0"
           xlink:href="#aFgyq8JwX"
           opacity="1"
           fill="#ffffff"
           fill-opacity="1"
           id="use116" />
        <g
           id="g120">
          <use
             height="100%"
             width="100%"
             y="0"
             x="0"
             xlink:href="#aFgyq8JwX"
             opacity="1"
             fill-opacity="0"
             stroke="#000000"
             stroke-width="1"
             stroke-opacity="0"
             id="use118" />
        </g>
      </g>
      <g
         id="g130">
        <use
           height="100%"
           width="100%"
           y="0"
           x="0"
           xlink:href="#c12ppCs8Id"
           opacity="1"
           fill="#f2f2f2"
           fill-opacity="1"
           id="use124" />
        <g
           id="g128">
          <use
             height="100%"
             width="100%"
             y="0"
             x="0"
             xlink:href="#c12ppCs8Id"
             opacity="1"
             fill-opacity="0"
             stroke="#000000"
             stroke-width="1"
             stroke-opacity="0"
             id="use126" />
        </g>
      </g>
      <g
         id="g138">
        <use
           height="100%"
           width="100%"
           y="0"
           x="0"
           xlink:href="#b1c9TmVhNT"
           opacity="1"
           fill="#ffffff"
           fill-opacity="1"
           id="use132" />
        <g
           id="g136">
          <use
             height="100%"
             width="100%"
             y="0"
             x="0"
             xlink:href="#b1c9TmVhNT"
             opacity="1"
             fill-opacity="0"
             stroke="#000000"
             stroke-width="1"
             stroke-opacity="0"
             id="use134" />
        </g>
      </g>
      <g
         id="g146">
        <use
           height="100%"
           width="100%"
           y="0"
           x="0"
           xlink:href="#b2JnBmTJT"
           opacity="1"
           fill="#ffffff"
           fill-opacity="1"
           id="use140" />
        <g
           id="g144">
          <use
             height="100%"
             width="100%"
             y="0"
             x="0"
             xlink:href="#b2JnBmTJT"
             opacity="1"
             fill-opacity="0"
             stroke="#000000"
             stroke-width="1"
             stroke-opacity="0"
             id="use142" />
        </g>
      </g>
      <g
         id="g154"
         style="fill:#eb6e34;fill-opacity:1">
        <use
           height="100%"
           width="100%"
           y="0"
           x="0"
           xlink:href="#d1oPYWZdbt"
           opacity="1"
           fill="#850009"
           fill-opacity="1"
           id="use148"
           style="fill:#eb6e34;fill-opacity:1" />
        <g
           id="g152"
           style="fill:#eb6e34;fill-opacity:1">
          <use
             height="100%"
             width="100%"
             y="0"
             x="0"
             xlink:href="#d1oPYWZdbt"
             opacity="1"
             fill-opacity="0"
             stroke="#000000"
             stroke-width="1"
             stroke-opacity="0"
             id="use150"
             style="fill:#eb6e34;fill-opacity:1" />
        </g>
      </g>
      <g
         id="g162">
        <use
           height="100%"
           width="100%"
           y="0"
           x="0"
           xlink:href="#b5WnULI4Aa"
           opacity="1"
           fill="#3f3d56"
           fill-opacity="1"
           id="use156" />
        <g
           id="g160">
          <use
             height="100%"
             width="100%"
             y="0"
             x="0"
             xlink:href="#b5WnULI4Aa"
             opacity="1"
             fill-opacity="0"
             stroke="#000000"
             stroke-width="1"
             stroke-opacity="0"
             id="use158" />
        </g>
      </g>
      <g
         id="g170">
        <use
           height="100%"
           width="100%"
           y="0"
           x="0"
           xlink:href="#a3S37nDWkw"
           opacity="1"
           fill="#ffffff"
           fill-opacity="1"
           id="use164" />
        <g
           id="g168">
          <use
             height="100%"
             width="100%"
             y="0"
             x="0"
             xlink:href="#a3S37nDWkw"
             opacity="1"
             fill-opacity="0"
             stroke="#000000"
             stroke-width="1"
             stroke-opacity="0"
             id="use166" />
        </g>
      </g>
      <g
         id="g178">
        <use
           height="100%"
           width="100%"
           y="0"
           x="0"
           xlink:href="#e7na83hqmx"
           opacity="1"
           fill="#ffffff"
           fill-opacity="1"
           id="use172" />
        <g
           id="g176">
          <use
             height="100%"
             width="100%"
             y="0"
             x="0"
             xlink:href="#e7na83hqmx"
             opacity="1"
             fill-opacity="0"
             stroke="#000000"
             stroke-width="1"
             stroke-opacity="0"
             id="use174" />
        </g>
      </g>
      <g
         id="g186"
         style="fill:#eb6e34;fill-opacity:1">
        <use
           height="100%"
           width="100%"
           y="0"
           x="0"
           xlink:href="#atuyH5qBw"
           opacity="1"
           fill="#850009"
           fill-opacity="1"
           id="use180"
           style="fill:#eb6e34;fill-opacity:1" />
        <g
           id="g184"
           style="fill:#eb6e34;fill-opacity:1">
          <use
             height="100%"
             width="100%"
             y="0"
             x="0"
             xlink:href="#atuyH5qBw"
             opacity="1"
             fill-opacity="0"
             stroke="#000000"
             stroke-width="1"
             stroke-opacity="0"
             id="use182"
             style="fill:#eb6e34;fill-opacity:1" />
        </g>
      </g>
      <g
         id="g194">
        <use
           height="100%"
           width="100%"
           y="0"
           x="0"
           xlink:href="#a10uNZB4c1"
           opacity="1"
           fill="#850009"
           fill-opacity="1"
           id="use188"
           style="fill:#eb6e34;fill-opacity:1" />
        <g
           id="g192">
          <use
             height="100%"
             width="100%"
             y="0"
             x="0"
             xlink:href="#a10uNZB4c1"
             opacity="1"
             fill-opacity="0"
             stroke="#000000"
             stroke-width="1"
             stroke-opacity="0"
             id="use190" />
        </g>
      </g>
      <g
         id="g202">
        <use
           height="100%"
           width="100%"
           y="0"
           x="0"
           xlink:href="#d71ybBNzQ"
           opacity="1"
           fill="#f2f2f2"
           fill-opacity="1"
           id="use196" />
        <g
           id="g200">
          <use
             height="100%"
             width="100%"
             y="0"
             x="0"
             xlink:href="#d71ybBNzQ"
             opacity="1"
             fill-opacity="0"
             stroke="#000000"
             stroke-width="1"
             stroke-opacity="0"
             id="use198" />
        </g>
      </g>
      <g
         id="g210">
        <use
           height="100%"
           width="100%"
           y="0"
           x="0"
           xlink:href="#c7h8Ja8TAD"
           opacity="1"
           fill="#f2f2f2"
           fill-opacity="1"
           id="use204" />
        <g
           id="g208">
          <use
             height="100%"
             width="100%"
             y="0"
             x="0"
             xlink:href="#c7h8Ja8TAD"
             opacity="1"
             fill-opacity="0"
             stroke="#000000"
             stroke-width="1"
             stroke-opacity="0"
             id="use206" />
        </g>
      </g>
      <g
         id="g218">
        <use
           height="100%"
           width="100%"
           y="0"
           x="0"
           xlink:href="#e6UqxBI2Oe"
           opacity="1"
           fill="#f2f2f2"
           fill-opacity="1"
           id="use212" />
        <g
           id="g216">
          <use
             height="100%"
             width="100%"
             y="0"
             x="0"
             xlink:href="#e6UqxBI2Oe"
             opacity="1"
             fill-opacity="0"
             stroke="#000000"
             stroke-width="1"
             stroke-opacity="0"
             id="use214" />
        </g>
      </g>
      <g
         id="g226">
        <use
           height="100%"
           width="100%"
           y="0"
           x="0"
           xlink:href="#a1DEqirxg1"
           opacity="1"
           fill="#f2f2f2"
           fill-opacity="1"
           id="use220" />
        <g
           id="g224">
          <use
             height="100%"
             width="100%"
             y="0"
             x="0"
             xlink:href="#a1DEqirxg1"
             opacity="1"
             fill-opacity="0"
             stroke="#000000"
             stroke-width="1"
             stroke-opacity="0"
             id="use222" />
        </g>
      </g>
      <g
         id="g234">
        <use
           height="100%"
           width="100%"
           y="0"
           x="0"
           xlink:href="#akdLleMPt"
           opacity="1"
           fill="#ffffff"
           fill-opacity="1"
           id="use228" />
        <g
           id="g232">
          <use
             height="100%"
             width="100%"
             y="0"
             x="0"
             xlink:href="#akdLleMPt"
             opacity="1"
             fill-opacity="0"
             stroke="#000000"
             stroke-width="1"
             stroke-opacity="0"
             id="use230" />
        </g>
      </g>
      <g
         id="g242">
        <use
           height="100%"
           width="100%"
           y="0"
           x="0"
           xlink:href="#e1qz86zjng"
           opacity="1"
           fill="#850009"
           fill-opacity="1"
           id="use236"
           style="fill:#eb6e34;fill-opacity:1" />
        <g
           id="g240">
          <use
             height="100%"
             width="100%"
             y="0"
             x="0"
             xlink:href="#e1qz86zjng"
             opacity="1"
             fill-opacity="0"
             stroke="#000000"
             stroke-width="1"
             stroke-opacity="0"
             id="use238" />
        </g>
      </g>
      <g
         id="g250">
        <use
           height="100%"
           width="100%"
           y="0"
           x="0"
           xlink:href="#a4deJ99KU"
           opacity="1"
           fill="#ffffff"
           fill-opacity="1"
           id="use244" />
        <g
           id="g248">
          <use
             height="100%"
             width="100%"
             y="0"
             x="0"
             xlink:href="#a4deJ99KU"
             opacity="1"
             fill-opacity="0"
             stroke="#000000"
             stroke-width="1"
             stroke-opacity="0"
             id="use246" />
        </g>
      </g>
      <g
         id="g258"
         style="fill:#eb6e34;fill-opacity:1">
        <use
           height="100%"
           width="100%"
           y="0"
           x="0"
           xlink:href="#k1lDST2dlv"
           opacity="1"
           fill="#850009"
           fill-opacity="1"
           id="use252"
           style="fill:#eb6e34;fill-opacity:1" />
        <g
           id="g256"
           style="fill:#eb6e34;fill-opacity:1">
          <use
             height="100%"
             width="100%"
             y="0"
             x="0"
             xlink:href="#k1lDST2dlv"
             opacity="1"
             fill-opacity="0"
             stroke="#000000"
             stroke-width="1"
             stroke-opacity="0"
             id="use254"
             style="fill:#eb6e34;fill-opacity:1" />
        </g>
      </g>
      <g
         id="g266">
        <use
           height="100%"
           width="100%"
           y="0"
           x="0"
           xlink:href="#bIT16LVDo"
           opacity="1"
           fill="#a0616a"
           fill-opacity="1"
           id="use260" />
        <g
           id="g264">
          <use
             height="100%"
             width="100%"
             y="0"
             x="0"
             xlink:href="#bIT16LVDo"
             opacity="1"
             fill-opacity="0"
             stroke="#000000"
             stroke-width="1"
             stroke-opacity="0"
             id="use262" />
        </g>
      </g>
      <g
         id="g274">
        <use
           height="100%"
           width="100%"
           y="0"
           x="0"
           xlink:href="#asTqvOrbe"
           opacity="1"
           fill="#a0616a"
           fill-opacity="1"
           id="use268" />
        <g
           id="g272">
          <use
             height="100%"
             width="100%"
             y="0"
             x="0"
             xlink:href="#asTqvOrbe"
             opacity="1"
             fill-opacity="0"
             stroke="#000000"
             stroke-width="1"
             stroke-opacity="0"
             id="use270" />
        </g>
      </g>
      <g
         id="g282">
        <use
           height="100%"
           width="100%"
           y="0"
           x="0"
           xlink:href="#a1PNK17uwX"
           opacity="1"
           fill="#a0616a"
           fill-opacity="1"
           id="use276" />
        <g
           id="g280">
          <use
             height="100%"
             width="100%"
             y="0"
             x="0"
             xlink:href="#a1PNK17uwX"
             opacity="1"
             fill-opacity="0"
             stroke="#000000"
             stroke-width="1"
             stroke-opacity="0"
             id="use278" />
        </g>
      </g>
      <g
         id="g290">
        <use
           height="100%"
           width="100%"
           y="0"
           x="0"
           xlink:href="#aLYHbA3Hw"
           opacity="1"
           fill="#2f2e41"
           fill-opacity="1"
           id="use284" />
        <g
           id="g288">
          <use
             height="100%"
             width="100%"
             y="0"
             x="0"
             xlink:href="#aLYHbA3Hw"
             opacity="1"
             fill-opacity="0"
             stroke="#000000"
             stroke-width="1"
             stroke-opacity="0"
             id="use286" />
        </g>
      </g>
      <g
         id="g298">
        <use
           height="100%"
           width="100%"
           y="0"
           x="0"
           xlink:href="#eMeBl62A"
           opacity="1"
           fill="#a0616a"
           fill-opacity="1"
           id="use292" />
        <g
           id="g296">
          <use
             height="100%"
             width="100%"
             y="0"
             x="0"
             xlink:href="#eMeBl62A"
             opacity="1"
             fill-opacity="0"
             stroke="#000000"
             stroke-width="1"
             stroke-opacity="0"
             id="use294" />
        </g>
      </g>
      <g
         id="g306">
        <use
           height="100%"
           width="100%"
           y="0"
           x="0"
           xlink:href="#dFmoPq0TO"
           opacity="1"
           fill="#2f2e41"
           fill-opacity="1"
           id="use300" />
        <g
           id="g304">
          <use
             height="100%"
             width="100%"
             y="0"
             x="0"
             xlink:href="#dFmoPq0TO"
             opacity="1"
             fill-opacity="0"
             stroke="#000000"
             stroke-width="1"
             stroke-opacity="0"
             id="use302" />
        </g>
      </g>
      <g
         id="g314">
        <use
           height="100%"
           width="100%"
           y="0"
           x="0"
           xlink:href="#hntex74e"
           opacity="1"
           fill="#2f2e41"
           fill-opacity="1"
           id="use308" />
        <g
           id="g312">
          <use
             height="100%"
             width="100%"
             y="0"
             x="0"
             xlink:href="#hntex74e"
             opacity="1"
             fill-opacity="0"
             stroke="#000000"
             stroke-width="1"
             stroke-opacity="0"
             id="use310" />
        </g>
      </g>
      <g
         id="g322">
        <use
           height="100%"
           width="100%"
           y="0"
           x="0"
           xlink:href="#cb2fdZ8N0"
           opacity="1"
           fill="#a0616a"
           fill-opacity="1"
           id="use316" />
        <g
           id="g320">
          <use
             height="100%"
             width="100%"
             y="0"
             x="0"
             xlink:href="#cb2fdZ8N0"
             opacity="1"
             fill-opacity="0"
             stroke="#000000"
             stroke-width="1"
             stroke-opacity="0"
             id="use318" />
        </g>
      </g>
      <g
         id="g330">
        <use
           height="100%"
           width="100%"
           y="0"
           x="0"
           xlink:href="#a6nThf2O1X"
           opacity="1"
           fill="#3f3d56"
           fill-opacity="1"
           id="use324" />
        <g
           id="g328">
          <use
             height="100%"
             width="100%"
             y="0"
             x="0"
             xlink:href="#a6nThf2O1X"
             opacity="1"
             fill-opacity="0"
             stroke="#000000"
             stroke-width="1"
             stroke-opacity="0"
             id="use326" />
        </g>
      </g>
      <g
         id="g338">
        <use
           height="100%"
           width="100%"
           y="0"
           x="0"
           xlink:href="#e1SOdFuCkL"
           opacity="1"
           fill="#3f3d56"
           fill-opacity="1"
           id="use332" />
        <g
           id="g336">
          <use
             height="100%"
             width="100%"
             y="0"
             x="0"
             xlink:href="#e1SOdFuCkL"
             opacity="1"
             fill-opacity="0"
             stroke="#000000"
             stroke-width="1"
             stroke-opacity="0"
             id="use334" />
        </g>
      </g>
      <g
         id="g346">
        <use
           height="100%"
           width="100%"
           y="0"
           x="0"
           xlink:href="#d6qvzijGiA"
           opacity="1"
           fill="#3f3d56"
           fill-opacity="1"
           id="use340" />
        <g
           id="g344">
          <use
             height="100%"
             width="100%"
             y="0"
             x="0"
             xlink:href="#d6qvzijGiA"
             opacity="1"
             fill-opacity="0"
             stroke="#000000"
             stroke-width="1"
             stroke-opacity="0"
             id="use342" />
        </g>
      </g>
      <g
         id="g354">
        <use
           height="100%"
           width="100%"
           y="0"
           x="0"
           xlink:href="#c3uvAAaTXC"
           opacity="1"
           fill="#2f2e41"
           fill-opacity="1"
           id="use348" />
        <g
           id="g352">
          <use
             height="100%"
             width="100%"
             y="0"
             x="0"
             xlink:href="#c3uvAAaTXC"
             opacity="1"
             fill-opacity="0"
             stroke="#000000"
             stroke-width="1"
             stroke-opacity="0"
             id="use350" />
        </g>
      </g>
      <g
         id="g362">
        <use
           height="100%"
           width="100%"
           y="0"
           x="0"
           xlink:href="#adcd89jDb"
           opacity="1"
           fill="#3f3d56"
           fill-opacity="1"
           id="use356" />
        <g
           id="g360">
          <use
             height="100%"
             width="100%"
             y="0"
             x="0"
             xlink:href="#adcd89jDb"
             opacity="1"
             fill-opacity="0"
             stroke="#000000"
             stroke-width="1"
             stroke-opacity="0"
             id="use358" />
        </g>
      </g>
    </g>
  </g>
</svg>
