<?xml version="1.0" encoding="UTF-8" standalone="no"?>
<svg
   xmlns:dc="http://purl.org/dc/elements/1.1/"
   xmlns:cc="http://creativecommons.org/ns#"
   xmlns:rdf="http://www.w3.org/1999/02/22-rdf-syntax-ns#"
   xmlns:svg="http://www.w3.org/2000/svg"
   xmlns="http://www.w3.org/2000/svg"
   xmlns:xlink="http://www.w3.org/1999/xlink"
   xmlns:sodipodi="http://sodipodi.sourceforge.net/DTD/sodipodi-0.dtd"
   xmlns:inkscape="http://www.inkscape.org/namespaces/inkscape"
   version="1.1"
   preserveAspectRatio="xMidYMid meet"
   viewBox="0 0 1920 1080"
   width="1920"
   height="1080"
   id="svg359"
   sodipodi:docname="chatbot.svg"
   inkscape:version="1.0 (4035a4fb49, 2020-05-01)">
  <metadata
     id="metadata363">
    <rdf:RDF>
      <cc:Work
         rdf:about="">
        <dc:format>image/svg+xml</dc:format>
        <dc:type
           rdf:resource="http://purl.org/dc/dcmitype/StillImage" />
      </cc:Work>
    </rdf:RDF>
  </metadata>
  <sodipodi:namedview
     inkscape:document-rotation="0"
     pagecolor="#ffffff"
     bordercolor="#666666"
     borderopacity="1"
     objecttolerance="10"
     gridtolerance="10"
     guidetolerance="10"
     inkscape:pageopacity="0"
     inkscape:pageshadow="2"
     inkscape:window-width="1366"
     inkscape:window-height="705"
     id="namedview361"
     showgrid="false"
     inkscape:zoom="0.35224393"
     inkscape:cx="898.9436"
     inkscape:cy="649.1367"
     inkscape:window-x="-8"
     inkscape:window-y="-8"
     inkscape:window-maximized="1"
     inkscape:current-layer="svg359" />
  <defs
     id="defs41">
    <path
       d="M434.47 845.39C430.94 835.88 425.47 829.76 419.32 829.76C413.18 829.76 407.71 835.88 404.18 845.39C402.99 844.46 401.53 843.94 400.03 843.91C393.05 843.91 387.39 855.94 387.39 870.78C393.78 870.78 444.87 870.78 451.25 870.78C451.25 855.94 445.59 843.91 438.61 843.91C437.11 843.94 435.66 844.46 434.47 845.39Z"
       id="b332jcMtf" />
    <path
       d="M692.35 869.28C692.35 869.28 692.35 869.28 692.35 869.28C692.35 871.08 692.35 872.08 692.35 872.28C692.35 872.28 692.35 872.28 692.35 872.28C498.08 872.28 390.16 872.28 368.57 872.28C368.57 872.28 368.57 872.28 368.57 872.28C368.57 870.48 368.57 869.48 368.57 869.28C368.57 869.28 368.57 869.28 368.57 869.28C562.84 869.28 670.76 869.28 692.35 869.28Z"
       id="bQCrTtgDu" />
    <path
       d="M1585.34 782.35C1581.81 772.84 1576.34 766.72 1570.2 766.72C1564.05 766.72 1558.58 772.84 1555.05 782.35C1553.86 781.42 1552.41 780.9 1550.91 780.87C1543.93 780.87 1538.27 792.9 1538.27 807.74C1544.65 807.74 1595.74 807.74 1602.13 807.74C1602.13 792.9 1596.47 780.87 1589.49 780.87C1587.99 780.9 1586.53 781.42 1585.34 782.35Z"
       id="a6z3uZguP" />
    <path
       d="M1143.78 287.09L1143.78 280.61L1003.98 280.61L1003.98 287.09C818.23 287.09 715.04 287.09 694.4 287.09C682.88 287.09 673.55 296.61 673.55 308.35C673.55 308.35 673.55 308.35 673.55 308.35C673.55 351.38 673.55 695.61 673.55 738.64C673.55 750.38 682.88 759.89 694.4 759.89C770.17 759.89 1376.32 759.89 1452.09 759.89C1463.6 759.89 1472.94 750.38 1472.94 738.64C1472.94 695.61 1472.94 351.38 1472.94 308.35C1472.94 296.61 1463.6 287.09 1452.09 287.09C1452.09 287.09 1452.09 287.09 1452.09 287.09C1452.09 287.09 1349.32 287.09 1143.78 287.09Z"
       id="h7xCfqHYDi" />
    <path
       d="M1444.97 324.65C1444.97 324.65 1444.97 324.65 1444.97 324.65C1444.97 581.14 1444.97 723.63 1444.97 752.13C1444.97 752.13 1444.97 752.13 1444.97 752.13C998.9 752.13 751.08 752.13 701.51 752.13C701.51 752.13 701.51 752.13 701.51 752.13C701.51 495.64 701.51 353.15 701.51 324.65C701.51 324.65 701.51 324.65 701.51 324.65C1147.59 324.65 1395.41 324.65 1444.97 324.65Z"
       id="c8nk6VLe9" />
    <path
       d="M1072.61 297.45C1068.4 297.45 1064.98 300.93 1064.98 305.23C1064.98 309.52 1068.4 313 1072.61 313C1076.82 313 1080.23 309.52 1080.23 305.23C1080.23 300.93 1076.82 297.45 1072.61 297.45Z"
       id="atNlNZ9X4" />
    <path
       d="M1611.43 804.74C1611.43 804.74 1611.43 804.74 1611.43 804.74C1611.43 806.54 1611.43 807.54 1611.43 807.74C1611.43 807.74 1611.43 807.74 1611.43 807.74C964.17 807.74 604.58 807.74 532.67 807.74C532.67 807.74 532.67 807.74 532.67 807.74C532.67 805.94 532.67 804.94 532.67 804.74C532.67 804.74 532.67 804.74 532.67 804.74C1179.92 804.74 1539.51 804.74 1611.43 804.74Z"
       id="f4ukl2FMsp" />
    <path
       d="M1174.82 452.74C1174.82 431.31 1157.78 413.93 1136.75 413.93C1136.75 413.93 1136.75 413.93 1136.75 413.93C1133.65 413.93 1108.82 413.93 1105.72 413.93C1105.72 409.66 1092.26 406.17 1075.16 405.83C1075.16 402.02 1075.16 371.51 1075.16 367.7C1086.81 366.2 1095.06 355.36 1093.59 343.49C1092.13 331.61 1081.49 323.2 1069.84 324.69C1058.19 326.19 1049.94 337.03 1051.4 348.9C1052.62 358.72 1060.21 366.46 1069.84 367.7C1069.84 371.51 1069.84 402.02 1069.84 405.83C1052.74 406.17 1039.28 409.66 1039.28 413.93C1035.64 413.93 1006.57 413.93 1002.93 413.93C981.91 413.93 964.86 431.31 964.86 452.74C964.86 452.74 964.86 452.74 964.86 452.74C964.86 455.9 964.86 481.2 964.86 484.36C960.46 484.36 956.89 499.52 956.89 518.22C956.89 536.92 960.46 552.08 964.86 552.08C964.86 555.79 964.86 585.42 964.86 589.13C964.86 610.56 981.91 627.93 1002.93 627.93C1002.93 627.93 1002.93 627.93 1002.93 627.93C1016.31 627.93 1123.37 627.93 1136.75 627.93C1157.78 627.93 1174.82 610.56 1174.82 589.13C1174.82 589.13 1174.82 589.13 1174.82 589.13C1174.82 585.42 1174.82 555.79 1174.82 552.08C1179.22 552.08 1182.79 536.92 1182.79 518.22C1182.79 499.52 1179.22 484.36 1174.82 484.36C1174.82 478.04 1174.82 455.9 1174.82 452.74Z"
       id="a3Lh2ue6gO" />
    <path
       d="M1129.13 426.12C1147.76 426.12 1162.86 441.52 1162.86 460.51C1162.86 460.51 1162.86 460.51 1162.86 460.51C1162.86 472.59 1162.86 569.27 1162.86 581.36C1162.86 600.35 1147.76 615.74 1129.13 615.74C1129.13 615.74 1129.13 615.74 1129.13 615.74C1117.27 615.74 1022.41 615.74 1010.55 615.74C991.92 615.74 976.82 600.35 976.82 581.36C976.82 569.27 976.82 472.59 976.82 460.51C976.82 441.52 991.92 426.12 1010.55 426.12C1010.55 426.12 1117.27 426.12 1129.13 426.12Z"
       id="d1IqIhkQ0y" />
    <path
       d="M1003.4 491.81C1003.4 491.06 1003.99 490.46 1004.73 490.46C1005.46 490.46 1006.06 491.06 1006.06 491.81C1006.06 503.78 1015.57 513.48 1027.32 513.48C1039.06 513.48 1048.58 503.78 1048.58 491.81C1048.58 491.06 1049.17 490.46 1049.91 490.46C1050.64 490.46 1051.24 491.06 1051.24 491.81C1051.22 505.27 1040.52 516.18 1027.32 516.19C1014.11 516.18 1003.41 505.27 1003.4 491.81Z"
       id="a3N10QkW5u" />
    <path
       d="M1051.24 543.28C1051.24 542.53 1051.83 541.93 1052.57 541.93C1053.3 541.93 1053.89 542.53 1053.89 543.28C1053.89 552.26 1061.03 559.53 1069.84 559.53C1078.65 559.53 1085.79 552.26 1085.79 543.28C1085.79 542.53 1086.38 541.93 1087.12 541.93C1087.85 541.93 1088.44 542.53 1088.44 543.28C1088.43 553.75 1080.11 562.23 1069.84 562.24C1059.57 562.23 1051.25 553.75 1051.24 543.28Z"
       id="aoaioHKVH" />
    <path
       d="M1088.44 491.81C1088.44 491.06 1089.04 490.46 1089.77 490.46C1090.51 490.46 1091.1 491.06 1091.1 491.81C1091.1 503.78 1100.62 513.48 1112.36 513.48C1124.11 513.48 1133.63 503.78 1133.63 491.81C1133.63 491.06 1134.22 490.46 1134.95 490.46C1135.69 490.46 1136.28 491.06 1136.28 491.81C1136.27 505.27 1125.57 516.18 1112.36 516.19C1099.16 516.18 1088.46 505.27 1088.44 491.81Z"
       id="b1hNe9LLoh" />
    <path
       d="M1027.32 480.98C1020.71 480.98 1015.36 486.43 1015.36 493.17C1015.36 499.9 1020.71 505.36 1027.32 505.36C1033.92 505.36 1039.28 499.9 1039.28 493.17C1039.28 486.43 1033.92 480.98 1027.32 480.98Z"
       id="g5ws4eOMt" />
    <path
       d="M1112.36 480.98C1105.76 480.98 1100.4 486.43 1100.4 493.17C1100.4 499.9 1105.76 505.36 1112.36 505.36C1118.97 505.36 1124.32 499.9 1124.32 493.17C1124.32 486.43 1118.97 480.98 1112.36 480.98Z"
       id="bE9VUN5BO" />
    <path
       d="M1080.47 550.05C1080.47 553.05 1075.71 555.47 1069.84 555.47C1063.97 555.47 1059.21 553.05 1059.21 550.05C1059.21 547.06 1063.97 544.64 1069.84 544.64C1075.71 544.64 1080.47 547.06 1080.47 550.05Z"
       id="aU5IaUmZQ" />
    <path
       d="M1421.26 744.35C1421.26 741.15 1421.26 739.38 1421.26 739.02C1421.26 738.44 1420.79 737.97 1420.22 737.97C1420.22 737.97 1420.22 737.97 1420.22 737.97C1417.73 737.97 1397.83 737.97 1395.34 737.97C1394.77 737.97 1394.31 738.44 1394.31 739.02C1394.31 739.02 1394.31 739.02 1394.31 739.02C1394.31 739.38 1394.31 741.15 1394.31 744.35L1378.76 744.35C1378.76 741.15 1378.76 739.38 1378.76 739.02C1378.76 738.44 1378.29 737.97 1377.72 737.97C1377.72 737.97 1377.72 737.97 1377.72 737.97C1375.23 737.97 1355.33 737.97 1352.84 737.97C1352.27 737.97 1351.81 738.44 1351.81 739.02C1351.81 739.02 1351.81 739.02 1351.81 739.02C1351.81 739.38 1351.81 741.15 1351.81 744.35L1336.26 744.35C1336.26 741.15 1336.26 739.38 1336.26 739.02C1336.26 738.44 1335.8 737.97 1335.22 737.97C1335.22 737.97 1335.22 737.97 1335.22 737.97C1332.74 737.97 1312.83 737.97 1310.35 737.97C1309.77 737.97 1309.31 738.44 1309.31 739.02C1309.31 739.02 1309.31 739.02 1309.31 739.02C1309.31 739.38 1309.31 741.15 1309.31 744.35L1293.76 744.35C1293.76 741.15 1293.76 739.38 1293.76 739.02C1293.76 738.44 1293.3 737.97 1292.72 737.97C1292.72 737.97 1292.72 737.97 1292.72 737.97C1290.24 737.97 1270.34 737.97 1267.85 737.97C1267.28 737.97 1266.81 738.44 1266.81 739.02C1266.81 739.02 1266.81 739.02 1266.81 739.02C1266.81 739.38 1266.81 741.15 1266.81 744.35L1251.26 744.35C1251.26 741.15 1251.26 739.38 1251.26 739.02C1251.26 738.44 1250.8 737.97 1250.23 737.97C1250.23 737.97 1250.23 737.97 1250.23 737.97C1247.74 737.97 1227.84 737.97 1225.35 737.97C1224.78 737.97 1224.31 738.44 1224.31 739.02C1224.31 739.02 1224.31 739.02 1224.31 739.02C1224.31 739.38 1224.31 741.15 1224.31 744.35L1208.76 744.35C1208.76 741.15 1208.76 739.38 1208.76 739.02C1208.76 738.44 1208.3 737.97 1207.73 737.97C1207.73 737.97 1207.73 737.97 1207.73 737.97C1205.24 737.97 1185.34 737.97 1182.85 737.97C1182.28 737.97 1181.81 738.44 1181.81 739.02C1181.81 739.02 1181.81 739.02 1181.81 739.02C1181.81 739.38 1181.81 741.15 1181.81 744.35L1166.27 744.35C1166.27 741.15 1166.27 739.38 1166.27 739.02C1166.27 738.44 1165.8 737.97 1165.23 737.97C1165.23 737.97 1165.23 737.97 1165.23 737.97C1145.74 737.97 989.85 737.97 970.36 737.97C969.79 737.97 969.32 738.44 969.32 739.02C969.32 739.02 969.32 739.02 969.32 739.02C969.32 739.38 969.32 741.15 969.32 744.35L953.77 744.35C953.77 741.15 953.77 739.38 953.77 739.02C953.77 738.44 953.31 737.97 952.74 737.97C952.74 737.97 952.74 737.97 952.74 737.97C950.25 737.97 930.35 737.97 927.86 737.97C927.29 737.97 926.82 738.44 926.82 739.02C926.82 739.02 926.82 739.02 926.82 739.02C926.82 739.38 926.82 741.15 926.82 744.35L911.28 744.35C911.28 741.15 911.28 739.38 911.28 739.02C911.28 738.44 910.81 737.97 910.24 737.97C910.24 737.97 910.24 737.97 910.24 737.97C907.75 737.97 887.85 737.97 885.36 737.97C884.79 737.97 884.33 738.44 884.33 739.02C884.33 739.02 884.33 739.02 884.33 739.02C884.33 739.38 884.33 741.15 884.33 744.35L868.78 744.35C868.78 741.15 868.78 739.38 868.78 739.02C868.78 738.44 868.31 737.97 867.74 737.97C867.74 737.97 867.74 737.97 867.74 737.97C865.25 737.97 845.35 737.97 842.86 737.97C842.29 737.97 841.83 738.44 841.83 739.02C841.83 739.02 841.83 739.02 841.83 739.02C841.83 739.38 841.83 741.15 841.83 744.35L826.28 744.35C826.28 741.15 826.28 739.38 826.28 739.02C826.28 738.44 825.81 737.97 825.24 737.97C825.24 737.97 825.24 737.97 825.24 737.97C822.75 737.97 802.85 737.97 800.36 737.97C799.79 737.97 799.33 738.44 799.33 739.02C799.33 739.02 799.33 739.02 799.33 739.02C799.33 739.38 799.33 741.15 799.33 744.35L783.78 744.35C783.78 741.15 783.78 739.38 783.78 739.02C783.78 738.44 783.32 737.97 782.74 737.97C782.74 737.97 782.74 737.97 782.74 737.97C780.26 737.97 760.35 737.97 757.87 737.97C757.29 737.97 756.83 738.44 756.83 739.02C756.83 739.02 756.83 739.02 756.83 739.02C756.83 739.38 756.83 741.15 756.83 744.35L741.28 744.35C741.28 741.15 741.28 739.38 741.28 739.02C741.28 738.44 740.82 737.97 740.25 737.97C740.25 737.97 740.25 737.97 740.25 737.97C737.76 737.97 717.86 737.97 715.37 737.97C714.8 737.97 714.33 738.44 714.33 739.02C714.33 739.02 714.33 739.02 714.33 739.02C714.33 739.38 714.33 741.15 714.33 744.35C685.72 744.35 669.83 744.35 666.65 744.35C652.91 744.35 641.77 755.7 641.77 769.71C641.77 769.71 641.77 769.71 641.77 769.71C641.77 770.85 641.77 780.03 641.77 781.17C641.77 795.18 652.91 806.53 666.65 806.53C749.37 806.53 1411.1 806.53 1493.82 806.53C1507.55 806.53 1518.69 795.18 1518.69 781.17C1518.69 780.03 1518.69 770.85 1518.69 769.71C1518.69 755.7 1507.55 744.35 1493.82 744.35C1493.82 744.35 1493.82 744.35 1493.82 744.35C1493.82 744.35 1469.63 744.35 1421.26 744.35Z"
       id="c8xtae1rA" />
    <path
       d="M1311.2 626.24C1311.2 626.24 1311.2 626.24 1311.2 626.24C1311.2 628.04 1311.2 629.04 1311.2 629.24C1311.2 629.24 1311.2 629.24 1311.2 629.24C1013.62 629.24 848.3 629.24 815.24 629.24C815.24 629.24 815.24 629.24 815.24 629.24C815.24 627.44 815.24 626.44 815.24 626.24C815.24 626.24 815.24 626.24 815.24 626.24C1112.81 626.24 1278.14 626.24 1311.2 626.24Z"
       id="b197VAe8fq" />
    <path
       d="M728.4 624.74C732.31 577.82 732.31 530.65 728.4 483.74C740.62 483.74 838.34 483.74 850.56 483.74C843.83 532.03 843.44 579.11 850.56 624.74C826.13 624.74 740.62 624.74 728.4 624.74Z"
       id="a1oSuiPxv" />
    <path
       d="M834.37 512.24C834.37 512.24 834.37 512.24 834.37 512.24C834.37 515.84 834.37 517.84 834.37 518.24C834.37 518.24 834.37 518.24 834.37 518.24C781.39 518.24 751.95 518.24 746.06 518.24C746.06 518.24 746.06 518.24 746.06 518.24C746.06 514.64 746.06 512.64 746.06 512.24C746.06 512.24 746.06 512.24 746.06 512.24C799.05 512.24 828.48 512.24 834.37 512.24Z"
       id="c1tl7P3b8h" />
    <path
       d="M834.37 531.74C834.37 531.74 834.37 531.74 834.37 531.74C834.37 535.34 834.37 537.34 834.37 537.74C834.37 537.74 834.37 537.74 834.37 537.74C781.39 537.74 751.95 537.74 746.06 537.74C746.06 537.74 746.06 537.74 746.06 537.74C746.06 534.14 746.06 532.14 746.06 531.74C746.06 531.74 746.06 531.74 746.06 531.74C799.05 531.74 828.48 531.74 834.37 531.74Z"
       id="b2fRQCO9pz" />
    <path
       d="M834.37 551.24C834.37 551.24 834.37 551.24 834.37 551.24C834.37 554.84 834.37 556.84 834.37 557.24C834.37 557.24 834.37 557.24 834.37 557.24C781.39 557.24 751.95 557.24 746.06 557.24C746.06 557.24 746.06 557.24 746.06 557.24C746.06 553.64 746.06 551.64 746.06 551.24C746.06 551.24 746.06 551.24 746.06 551.24C799.05 551.24 828.48 551.24 834.37 551.24Z"
       id="f16qlJ6Cr5" />
    <path
       d="M834.37 570.74C834.37 570.74 834.37 570.74 834.37 570.74C834.37 574.34 834.37 576.34 834.37 576.74C834.37 576.74 834.37 576.74 834.37 576.74C781.39 576.74 751.95 576.74 746.06 576.74C746.06 576.74 746.06 576.74 746.06 576.74C746.06 573.14 746.06 571.14 746.06 570.74C746.06 570.74 746.06 570.74 746.06 570.74C799.05 570.74 828.48 570.74 834.37 570.74Z"
       id="a3rzzhBVSO" />
    <path
       d="M834.37 590.24C834.37 590.24 834.37 590.24 834.37 590.24C834.37 593.84 834.37 595.84 834.37 596.24C834.37 596.24 834.37 596.24 834.37 596.24C781.39 596.24 751.95 596.24 746.06 596.24C746.06 596.24 746.06 596.24 746.06 596.24C746.06 592.64 746.06 590.64 746.06 590.24C746.06 590.24 746.06 590.24 746.06 590.24C799.05 590.24 828.48 590.24 834.37 590.24Z"
       id="d32wvol4y" />
    <path
       d="M494.43 175.08C494.43 175.08 462.9 233.77 462.9 233.77C464 234.05 472.77 236.28 473.87 236.56C473.87 236.56 476.61 217 483.46 214.2C483.19 216.72 481 236.84 480.72 239.35C480.72 239.35 562.98 268.7 599.99 236.56C599.85 235.58 598.76 227.76 598.62 226.78C598.62 226.78 604.1 228.18 604.1 236.56C604.52 236.14 607.81 232.79 608.22 232.37C608.22 232.37 604.1 223.98 591.77 212.81C583.67 205.47 580.88 191.51 579.93 182.78C579.21 175.5 576.35 168.6 571.72 163C563.52 153.31 548.58 143.02 525.96 154.12C519.66 158.31 506.77 147.13 494.43 175.08Z"
       id="aLUgrPV6j" />
    <path
       d="M476.5 805.02L500.05 800.52L504.46 770.52L470.61 770.52L470.61 770.52L476.5 805.02Z"
       id="fYKlYtBEv" />
    <path
       d="M504.46 790.02L472.08 793.02L473.56 820.03C472.67 840.73 472.18 852.23 472.08 854.53C472.08 854.53 452.95 893.53 480.91 890.53C480.91 890.53 505.93 872.53 505.93 872.53C506.42 871.93 508.88 868.93 513.29 863.53L508.88 841.03L504.46 790.02Z"
       id="b1EoUAnR5f" />
    <path
       d="M597.18 805.02L573.63 800.52L569.22 770.52L603.07 770.52L603.07 770.52L597.18 805.02Z"
       id="mkKgjjsBf" />
    <path
       d="M569.22 790.02L601.59 793.02L600.12 820.03C601.01 840.73 601.5 852.23 601.59 854.53C601.59 854.53 620.73 893.53 592.76 890.53C592.76 890.53 567.74 872.53 567.74 872.53C567.25 871.93 564.8 868.93 560.39 863.53L564.8 841.03L569.22 790.02Z"
       id="d1DAxqp7de" />
    <path
       d="M535.37 178.01C516.67 178.01 501.52 193.46 501.52 212.51C501.52 231.57 516.67 247.02 535.37 247.02C554.06 247.02 569.22 231.57 569.22 212.51C569.22 193.46 554.06 178.01 535.37 178.01Z"
       id="dokPR3JVt" />
    <path
       d="M513.29 230.51L517.71 284.52C542.43 283.62 556.17 283.12 558.91 283.02C558.91 283.02 547.14 248.52 554.5 235.01C549.01 234.41 535.27 232.91 513.29 230.51Z"
       id="d1cgxWiyIJ" />
    <path
       d="M536.84 274.02L553.79 263.24L572.16 272.52L601.59 286.02C595.41 362.52 591.98 405.02 591.29 413.52C591.29 413.52 614.84 493.02 610.42 532.02C610.42 532.02 658.99 766.02 616.31 775.02C616.31 775.02 542.73 793.02 541.25 778.02C541.25 778.02 536.84 533.52 536.84 533.52C536.84 533.52 532.42 776.52 514.76 779.52C514.76 779.52 420.57 794.52 426.46 776.52C426.46 776.52 472.08 443.52 491.22 425.52C491.41 424.52 492.39 419.52 494.16 410.52L469.14 289.02L516.12 265.15L536.84 274.02Z"
       id="c1rkiBvCGy" />
    <path
       d="M448.54 460.02C447.65 496.92 447.16 517.42 447.06 521.52C447.06 521.52 432.9 582.24 456.91 581.88C456.91 581.88 463.25 521.52 463.25 521.52C463.94 517.52 467.37 497.52 473.56 461.52L448.54 460.02Z"
       id="e2dt6LHmG" />
    <path
       d="M671.08 395.47C695.89 422.35 709.68 437.29 712.44 440.28C712.44 440.28 762.74 475.86 744.63 491.93C726.51 507.99 700.38 451.29 700.38 451.29C697.25 448.77 681.6 436.21 653.43 413.6L671.08 395.47Z"
       id="a1dYgz8tn" />
    <path
       d="M592.75 418.62L591.44 411.64L591.44 411.61L494.01 409.81L491.95 421.77L491.95 421.77L592.75 418.62Z"
       id="bsHMJjqRC" />
    <path
       d="M512.56 406.77C507.68 406.77 503.73 410.8 503.73 415.77C503.73 420.74 507.68 424.77 512.56 424.77C517.43 424.77 521.39 420.74 521.39 415.77C521.39 410.8 517.43 406.77 512.56 406.77Z"
       id="l2w0IIsYs" />
    <path
       d="M480.91 290.52C475.17 289.17 471.99 288.42 471.35 288.27C471.35 288.27 458.84 293.52 455.9 310.02C455.9 310.02 414.69 455.52 433.82 463.02C433.82 463.02 480.91 473.52 480.91 470.52C480.91 470.52 492.69 355.02 492.69 355.02C491.12 346.42 487.19 324.92 480.91 290.52Z"
       id="aj6FZ5Ii" />
    <path
       d="M570.93 296.23C589.33 290.1 599.55 286.7 601.59 286.02C601.59 286.02 616.31 286.02 616.31 302.52C616.31 309.32 644.52 365.23 644.52 365.23C644.52 365.23 712.29 414.47 701.91 416.24C684.25 419.24 673.95 450.74 673.95 450.74C669.54 446.74 647.46 426.74 607.72 390.74L570.93 296.23Z"
       id="b3iDHPCjE" />
    <path
       d="M494.08 215.08C494.08 215.08 505.05 199.71 514.65 196.92C514.65 196.92 525.61 180.15 525.61 180.15C525.61 180.15 550.29 208.1 565.37 209.49C580.45 210.89 566.74 175.96 566.74 175.96C564.91 175.49 555.78 173.16 539.32 168.97L513.28 171.77L492.71 185.74C493.44 201.39 493.9 211.17 494.08 215.08Z"
       id="c2DJ8LMWNX" />
    <path
       d="M506.67 207.26C506.67 210.99 504.69 214.01 502.25 214.01C499.82 214.01 497.84 210.99 497.84 207.26C497.84 203.54 499.82 200.51 502.25 200.51C504.69 200.51 506.67 203.54 506.67 207.26Z"
       id="b3YVKFQ9yn" />
  </defs>
  <g
     transform="matrix(0.95436519,0,0,0.92349728,33.8227,164.69498)"
     id="g357">
    <g
       id="g355">
      <g
         id="g49"
         style="fill:#eb6e34;fill-opacity:1">
        <use
           height="100%"
           width="100%"
           y="0"
           x="0"
           xlink:href="#b332jcMtf"
           opacity="1"
           fill="#850009"
           fill-opacity="1"
           id="use43"
           style="fill:#eb6e34;fill-opacity:1" />
        <g
           id="g47"
           style="fill:#eb6e34;fill-opacity:1">
          <use
             height="100%"
             width="100%"
             y="0"
             x="0"
             xlink:href="#b332jcMtf"
             opacity="1"
             fill-opacity="0"
             stroke="#000000"
             stroke-width="1"
             stroke-opacity="0"
             id="use45"
             style="fill:#eb6e34;fill-opacity:1" />
        </g>
      </g>
      <g
         id="g57">
        <use
           height="100%"
           width="100%"
           y="0"
           x="0"
           xlink:href="#bQCrTtgDu"
           opacity="1"
           fill="#3f3d56"
           fill-opacity="1"
           id="use51" />
        <g
           id="g55">
          <use
             height="100%"
             width="100%"
             y="0"
             x="0"
             xlink:href="#bQCrTtgDu"
             opacity="1"
             fill-opacity="0"
             stroke="#000000"
             stroke-width="1"
             stroke-opacity="0"
             id="use53" />
        </g>
      </g>
      <g
         id="g65"
         style="fill:#eb6e34;fill-opacity:1">
        <use
           height="100%"
           width="100%"
           y="0"
           x="0"
           xlink:href="#a6z3uZguP"
           opacity="1"
           fill="#850009"
           fill-opacity="1"
           id="use59"
           style="fill:#eb6e34;fill-opacity:1" />
        <g
           id="g63"
           style="fill:#eb6e34;fill-opacity:1">
          <use
             height="100%"
             width="100%"
             y="0"
             x="0"
             xlink:href="#a6z3uZguP"
             opacity="1"
             fill-opacity="0"
             stroke="#000000"
             stroke-width="1"
             stroke-opacity="0"
             id="use61"
             style="fill:#eb6e34;fill-opacity:1" />
        </g>
      </g>
      <g
         id="g73">
        <use
           height="100%"
           width="100%"
           y="0"
           x="0"
           xlink:href="#h7xCfqHYDi"
           opacity="1"
           fill="#3f3d56"
           fill-opacity="1"
           id="use67" />
        <g
           id="g71">
          <use
             height="100%"
             width="100%"
             y="0"
             x="0"
             xlink:href="#h7xCfqHYDi"
             opacity="1"
             fill-opacity="0"
             stroke="#000000"
             stroke-width="1"
             stroke-opacity="0"
             id="use69" />
        </g>
      </g>
      <g
         id="g81">
        <use
           height="100%"
           width="100%"
           y="0"
           x="0"
           xlink:href="#c8nk6VLe9"
           opacity="1"
           fill="#ffffff"
           fill-opacity="1"
           id="use75" />
        <g
           id="g79">
          <use
             height="100%"
             width="100%"
             y="0"
             x="0"
             xlink:href="#c8nk6VLe9"
             opacity="1"
             fill-opacity="0"
             stroke="#000000"
             stroke-width="1"
             stroke-opacity="0"
             id="use77" />
        </g>
      </g>
      <g
         id="g89">
        <use
           height="100%"
           width="100%"
           y="0"
           x="0"
           xlink:href="#atNlNZ9X4"
           opacity="1"
           fill="#850009"
           fill-opacity="1"
           id="use83" />
        <g
           id="g87">
          <use
             height="100%"
             width="100%"
             y="0"
             x="0"
             xlink:href="#atNlNZ9X4"
             opacity="1"
             fill-opacity="0"
             stroke="#000000"
             stroke-width="1"
             stroke-opacity="0"
             id="use85" />
        </g>
      </g>
      <g
         id="g97">
        <use
           height="100%"
           width="100%"
           y="0"
           x="0"
           xlink:href="#f4ukl2FMsp"
           opacity="1"
           fill="#3f3d56"
           fill-opacity="1"
           id="use91" />
        <g
           id="g95">
          <use
             height="100%"
             width="100%"
             y="0"
             x="0"
             xlink:href="#f4ukl2FMsp"
             opacity="1"
             fill-opacity="0"
             stroke="#000000"
             stroke-width="1"
             stroke-opacity="0"
             id="use93" />
        </g>
      </g>
      <g
         id="g105">
        <use
           height="100%"
           width="100%"
           y="0"
           x="0"
           xlink:href="#a3Lh2ue6gO"
           opacity="1"
           fill="#850009"
           fill-opacity="1"
           id="use99"
           style="fill:#eb6e34;fill-opacity:1" />
        <g
           id="g103">
          <use
             height="100%"
             width="100%"
             y="0"
             x="0"
             xlink:href="#a3Lh2ue6gO"
             opacity="1"
             fill-opacity="0"
             stroke="#000000"
             stroke-width="1"
             stroke-opacity="0"
             id="use101" />
        </g>
      </g>
      <g
         id="g113">
        <use
           height="100%"
           width="100%"
           y="0"
           x="0"
           xlink:href="#d1IqIhkQ0y"
           opacity="1"
           fill="#ffffff"
           fill-opacity="1"
           id="use107" />
        <g
           id="g111">
          <use
             height="100%"
             width="100%"
             y="0"
             x="0"
             xlink:href="#d1IqIhkQ0y"
             opacity="1"
             fill-opacity="0"
             stroke="#000000"
             stroke-width="1"
             stroke-opacity="0"
             id="use109" />
        </g>
      </g>
      <g
         id="g121">
        <use
           height="100%"
           width="100%"
           y="0"
           x="0"
           xlink:href="#a3N10QkW5u"
           opacity="1"
           fill="#850009"
           fill-opacity="1"
           id="use115"
           style="fill:#eb6e34;fill-opacity:1" />
        <g
           id="g119">
          <use
             height="100%"
             width="100%"
             y="0"
             x="0"
             xlink:href="#a3N10QkW5u"
             opacity="1"
             fill-opacity="0"
             stroke="#000000"
             stroke-width="1"
             stroke-opacity="0"
             id="use117" />
        </g>
      </g>
      <g
         id="g129"
         style="fill:#eb6e34;fill-opacity:1">
        <use
           height="100%"
           width="100%"
           y="0"
           x="0"
           xlink:href="#aoaioHKVH"
           opacity="1"
           fill="#850009"
           fill-opacity="1"
           id="use123"
           style="fill:#eb6e34;fill-opacity:1" />
        <g
           id="g127"
           style="fill:#eb6e34;fill-opacity:1">
          <use
             height="100%"
             width="100%"
             y="0"
             x="0"
             xlink:href="#aoaioHKVH"
             opacity="1"
             fill-opacity="0"
             stroke="#000000"
             stroke-width="1"
             stroke-opacity="0"
             id="use125"
             style="fill:#eb6e34;fill-opacity:1" />
        </g>
      </g>
      <g
         id="g137"
         style="fill:#eb6e34;fill-opacity:1">
        <use
           height="100%"
           width="100%"
           y="0"
           x="0"
           xlink:href="#b1hNe9LLoh"
           opacity="1"
           fill="#850009"
           fill-opacity="1"
           id="use131"
           style="fill:#eb6e34;fill-opacity:1" />
        <g
           id="g135"
           style="fill:#eb6e34;fill-opacity:1">
          <use
             height="100%"
             width="100%"
             y="0"
             x="0"
             xlink:href="#b1hNe9LLoh"
             opacity="1"
             fill-opacity="0"
             stroke="#000000"
             stroke-width="1"
             stroke-opacity="0"
             id="use133"
             style="fill:#eb6e34;fill-opacity:1" />
        </g>
      </g>
      <g
         id="g145"
         style="fill:#eb6e34;fill-opacity:1">
        <use
           height="100%"
           width="100%"
           y="0"
           x="0"
           xlink:href="#g5ws4eOMt"
           opacity="1"
           fill="#850009"
           fill-opacity="1"
           id="use139"
           style="fill:#eb6e34;fill-opacity:1" />
        <g
           id="g143"
           style="fill:#eb6e34;fill-opacity:1">
          <use
             height="100%"
             width="100%"
             y="0"
             x="0"
             xlink:href="#g5ws4eOMt"
             opacity="1"
             fill-opacity="0"
             stroke="#000000"
             stroke-width="1"
             stroke-opacity="0"
             id="use141"
             style="fill:#eb6e34;fill-opacity:1" />
        </g>
      </g>
      <g
         id="g153">
        <use
           height="100%"
           width="100%"
           y="0"
           x="0"
           xlink:href="#bE9VUN5BO"
           opacity="1"
           fill="#850009"
           fill-opacity="1"
           id="use147"
           style="fill:#eb6e34;fill-opacity:1" />
        <g
           id="g151">
          <use
             height="100%"
             width="100%"
             y="0"
             x="0"
             xlink:href="#bE9VUN5BO"
             opacity="1"
             fill-opacity="0"
             stroke="#000000"
             stroke-width="1"
             stroke-opacity="0"
             id="use149" />
        </g>
      </g>
      <g
         id="g161">
        <use
           height="100%"
           width="100%"
           y="0"
           x="0"
           xlink:href="#aU5IaUmZQ"
           opacity="1"
           fill="#850009"
           fill-opacity="1"
           id="use155"
           style="fill:#eb6e34;fill-opacity:1" />
        <g
           id="g159">
          <use
             height="100%"
             width="100%"
             y="0"
             x="0"
             xlink:href="#aU5IaUmZQ"
             opacity="1"
             fill-opacity="0"
             stroke="#000000"
             stroke-width="1"
             stroke-opacity="0"
             id="use157" />
        </g>
      </g>
      <g
         id="g169">
        <use
           height="100%"
           width="100%"
           y="0"
           x="0"
           xlink:href="#c8xtae1rA"
           opacity="1"
           fill="#3f3d56"
           fill-opacity="1"
           id="use163" />
        <g
           id="g167">
          <use
             height="100%"
             width="100%"
             y="0"
             x="0"
             xlink:href="#c8xtae1rA"
             opacity="1"
             fill-opacity="0"
             stroke="#000000"
             stroke-width="1"
             stroke-opacity="0"
             id="use165" />
        </g>
      </g>
      <g
         id="g177"
         style="fill:#eb6e34;fill-opacity:1">
        <use
           height="100%"
           width="100%"
           y="0"
           x="0"
           xlink:href="#b197VAe8fq"
           opacity="1"
           fill="#850009"
           fill-opacity="1"
           id="use171"
           style="fill:#eb6e34;fill-opacity:1" />
        <g
           id="g175"
           style="fill:#eb6e34;fill-opacity:1">
          <use
             height="100%"
             width="100%"
             y="0"
             x="0"
             xlink:href="#b197VAe8fq"
             opacity="1"
             fill-opacity="0"
             stroke="#000000"
             stroke-width="1"
             stroke-opacity="0"
             id="use173"
             style="fill:#eb6e34;fill-opacity:1" />
        </g>
      </g>
      <g
         id="g185">
        <use
           height="100%"
           width="100%"
           y="0"
           x="0"
           xlink:href="#a1oSuiPxv"
           opacity="1"
           fill="#d0cde1"
           fill-opacity="1"
           id="use179" />
        <g
           id="g183">
          <use
             height="100%"
             width="100%"
             y="0"
             x="0"
             xlink:href="#a1oSuiPxv"
             opacity="1"
             fill-opacity="0"
             stroke="#000000"
             stroke-width="1"
             stroke-opacity="0"
             id="use181" />
        </g>
      </g>
      <g
         id="g193">
        <use
           height="100%"
           width="100%"
           y="0"
           x="0"
           xlink:href="#c1tl7P3b8h"
           opacity="1"
           fill="#3f3d56"
           fill-opacity="1"
           id="use187" />
        <g
           id="g191">
          <use
             height="100%"
             width="100%"
             y="0"
             x="0"
             xlink:href="#c1tl7P3b8h"
             opacity="1"
             fill-opacity="0"
             stroke="#000000"
             stroke-width="1"
             stroke-opacity="0"
             id="use189" />
        </g>
      </g>
      <g
         id="g201">
        <use
           height="100%"
           width="100%"
           y="0"
           x="0"
           xlink:href="#b2fRQCO9pz"
           opacity="1"
           fill="#3f3d56"
           fill-opacity="1"
           id="use195" />
        <g
           id="g199">
          <use
             height="100%"
             width="100%"
             y="0"
             x="0"
             xlink:href="#b2fRQCO9pz"
             opacity="1"
             fill-opacity="0"
             stroke="#000000"
             stroke-width="1"
             stroke-opacity="0"
             id="use197" />
        </g>
      </g>
      <g
         id="g209">
        <use
           height="100%"
           width="100%"
           y="0"
           x="0"
           xlink:href="#f16qlJ6Cr5"
           opacity="1"
           fill="#3f3d56"
           fill-opacity="1"
           id="use203" />
        <g
           id="g207">
          <use
             height="100%"
             width="100%"
             y="0"
             x="0"
             xlink:href="#f16qlJ6Cr5"
             opacity="1"
             fill-opacity="0"
             stroke="#000000"
             stroke-width="1"
             stroke-opacity="0"
             id="use205" />
        </g>
      </g>
      <g
         id="g217">
        <use
           height="100%"
           width="100%"
           y="0"
           x="0"
           xlink:href="#a3rzzhBVSO"
           opacity="1"
           fill="#3f3d56"
           fill-opacity="1"
           id="use211" />
        <g
           id="g215">
          <use
             height="100%"
             width="100%"
             y="0"
             x="0"
             xlink:href="#a3rzzhBVSO"
             opacity="1"
             fill-opacity="0"
             stroke="#000000"
             stroke-width="1"
             stroke-opacity="0"
             id="use213" />
        </g>
      </g>
      <g
         id="g225">
        <use
           height="100%"
           width="100%"
           y="0"
           x="0"
           xlink:href="#d32wvol4y"
           opacity="1"
           fill="#3f3d56"
           fill-opacity="1"
           id="use219" />
        <g
           id="g223">
          <use
             height="100%"
             width="100%"
             y="0"
             x="0"
             xlink:href="#d32wvol4y"
             opacity="1"
             fill-opacity="0"
             stroke="#000000"
             stroke-width="1"
             stroke-opacity="0"
             id="use221" />
        </g>
      </g>
      <g
         id="g233">
        <use
           height="100%"
           width="100%"
           y="0"
           x="0"
           xlink:href="#aLUgrPV6j"
           opacity="1"
           fill="#2f2e41"
           fill-opacity="1"
           id="use227" />
        <g
           id="g231">
          <use
             height="100%"
             width="100%"
             y="0"
             x="0"
             xlink:href="#aLUgrPV6j"
             opacity="1"
             fill-opacity="0"
             stroke="#000000"
             stroke-width="1"
             stroke-opacity="0"
             id="use229" />
        </g>
      </g>
      <g
         id="g241">
        <use
           height="100%"
           width="100%"
           y="0"
           x="0"
           xlink:href="#fYKlYtBEv"
           opacity="1"
           fill="#ffb9b9"
           fill-opacity="1"
           id="use235" />
        <g
           id="g239">
          <use
             height="100%"
             width="100%"
             y="0"
             x="0"
             xlink:href="#fYKlYtBEv"
             opacity="1"
             fill-opacity="0"
             stroke="#000000"
             stroke-width="1"
             stroke-opacity="0"
             id="use237" />
        </g>
      </g>
      <g
         id="g249">
        <use
           height="100%"
           width="100%"
           y="0"
           x="0"
           xlink:href="#b1EoUAnR5f"
           opacity="1"
           fill="#2f2e41"
           fill-opacity="1"
           id="use243" />
        <g
           id="g247">
          <use
             height="100%"
             width="100%"
             y="0"
             x="0"
             xlink:href="#b1EoUAnR5f"
             opacity="1"
             fill-opacity="0"
             stroke="#000000"
             stroke-width="1"
             stroke-opacity="0"
             id="use245" />
        </g>
      </g>
      <g
         id="g257">
        <use
           height="100%"
           width="100%"
           y="0"
           x="0"
           xlink:href="#mkKgjjsBf"
           opacity="1"
           fill="#ffb9b9"
           fill-opacity="1"
           id="use251" />
        <g
           id="g255">
          <use
             height="100%"
             width="100%"
             y="0"
             x="0"
             xlink:href="#mkKgjjsBf"
             opacity="1"
             fill-opacity="0"
             stroke="#000000"
             stroke-width="1"
             stroke-opacity="0"
             id="use253" />
        </g>
      </g>
      <g
         id="g265">
        <use
           height="100%"
           width="100%"
           y="0"
           x="0"
           xlink:href="#d1DAxqp7de"
           opacity="1"
           fill="#2f2e41"
           fill-opacity="1"
           id="use259" />
        <g
           id="g263">
          <use
             height="100%"
             width="100%"
             y="0"
             x="0"
             xlink:href="#d1DAxqp7de"
             opacity="1"
             fill-opacity="0"
             stroke="#000000"
             stroke-width="1"
             stroke-opacity="0"
             id="use261" />
        </g>
      </g>
      <g
         id="g273">
        <use
           height="100%"
           width="100%"
           y="0"
           x="0"
           xlink:href="#dokPR3JVt"
           opacity="1"
           fill="#ffb9b9"
           fill-opacity="1"
           id="use267" />
        <g
           id="g271">
          <use
             height="100%"
             width="100%"
             y="0"
             x="0"
             xlink:href="#dokPR3JVt"
             opacity="1"
             fill-opacity="0"
             stroke="#000000"
             stroke-width="1"
             stroke-opacity="0"
             id="use269" />
        </g>
      </g>
      <g
         id="g281">
        <use
           height="100%"
           width="100%"
           y="0"
           x="0"
           xlink:href="#d1cgxWiyIJ"
           opacity="1"
           fill="#ffb9b9"
           fill-opacity="1"
           id="use275" />
        <g
           id="g279">
          <use
             height="100%"
             width="100%"
             y="0"
             x="0"
             xlink:href="#d1cgxWiyIJ"
             opacity="1"
             fill-opacity="0"
             stroke="#000000"
             stroke-width="1"
             stroke-opacity="0"
             id="use277" />
        </g>
      </g>
      <g
         id="g289">
        <use
           height="100%"
           width="100%"
           y="0"
           x="0"
           xlink:href="#c1rkiBvCGy"
           opacity="1"
           fill="#2f2e41"
           fill-opacity="1"
           id="use283" />
        <g
           id="g287">
          <use
             height="100%"
             width="100%"
             y="0"
             x="0"
             xlink:href="#c1rkiBvCGy"
             opacity="1"
             fill-opacity="0"
             stroke="#000000"
             stroke-width="1"
             stroke-opacity="0"
             id="use285" />
        </g>
      </g>
      <g
         id="g297">
        <use
           height="100%"
           width="100%"
           y="0"
           x="0"
           xlink:href="#e2dt6LHmG"
           opacity="1"
           fill="#ffb9b9"
           fill-opacity="1"
           id="use291" />
        <g
           id="g295">
          <use
             height="100%"
             width="100%"
             y="0"
             x="0"
             xlink:href="#e2dt6LHmG"
             opacity="1"
             fill-opacity="0"
             stroke="#000000"
             stroke-width="1"
             stroke-opacity="0"
             id="use293" />
        </g>
      </g>
      <g
         id="g305">
        <use
           height="100%"
           width="100%"
           y="0"
           x="0"
           xlink:href="#a1dYgz8tn"
           opacity="1"
           fill="#ffb9b9"
           fill-opacity="1"
           id="use299" />
        <g
           id="g303">
          <use
             height="100%"
             width="100%"
             y="0"
             x="0"
             xlink:href="#a1dYgz8tn"
             opacity="1"
             fill-opacity="0"
             stroke="#000000"
             stroke-width="1"
             stroke-opacity="0"
             id="use301" />
        </g>
      </g>
      <g
         id="g313">
        <use
           height="100%"
           width="100%"
           y="0"
           x="0"
           xlink:href="#bsHMJjqRC"
           opacity="1"
           fill="#d0cde1"
           fill-opacity="1"
           id="use307" />
        <g
           id="g311">
          <use
             height="100%"
             width="100%"
             y="0"
             x="0"
             xlink:href="#bsHMJjqRC"
             opacity="1"
             fill-opacity="0"
             stroke="#000000"
             stroke-width="1"
             stroke-opacity="0"
             id="use309" />
        </g>
      </g>
      <g
         id="g321">
        <use
           height="100%"
           width="100%"
           y="0"
           x="0"
           xlink:href="#l2w0IIsYs"
           opacity="1"
           fill="#2f2e41"
           fill-opacity="1"
           id="use315" />
        <g
           id="g319">
          <use
             height="100%"
             width="100%"
             y="0"
             x="0"
             xlink:href="#l2w0IIsYs"
             opacity="1"
             fill-opacity="0"
             stroke="#000000"
             stroke-width="1"
             stroke-opacity="0"
             id="use317" />
        </g>
      </g>
      <g
         id="g329">
        <use
           height="100%"
           width="100%"
           y="0"
           x="0"
           xlink:href="#aj6FZ5Ii"
           opacity="1"
           fill="#2f2e41"
           fill-opacity="1"
           id="use323" />
        <g
           id="g327">
          <use
             height="100%"
             width="100%"
             y="0"
             x="0"
             xlink:href="#aj6FZ5Ii"
             opacity="1"
             fill-opacity="0"
             stroke="#000000"
             stroke-width="1"
             stroke-opacity="0"
             id="use325" />
        </g>
      </g>
      <g
         id="g337">
        <use
           height="100%"
           width="100%"
           y="0"
           x="0"
           xlink:href="#b3iDHPCjE"
           opacity="1"
           fill="#2f2e41"
           fill-opacity="1"
           id="use331" />
        <g
           id="g335">
          <use
             height="100%"
             width="100%"
             y="0"
             x="0"
             xlink:href="#b3iDHPCjE"
             opacity="1"
             fill-opacity="0"
             stroke="#000000"
             stroke-width="1"
             stroke-opacity="0"
             id="use333" />
        </g>
      </g>
      <g
         id="g345">
        <use
           height="100%"
           width="100%"
           y="0"
           x="0"
           xlink:href="#c2DJ8LMWNX"
           opacity="1"
           fill="#2f2e41"
           fill-opacity="1"
           id="use339" />
        <g
           id="g343">
          <use
             height="100%"
             width="100%"
             y="0"
             x="0"
             xlink:href="#c2DJ8LMWNX"
             opacity="1"
             fill-opacity="0"
             stroke="#000000"
             stroke-width="1"
             stroke-opacity="0"
             id="use341" />
        </g>
      </g>
      <g
         id="g353">
        <use
           height="100%"
           width="100%"
           y="0"
           x="0"
           xlink:href="#b3YVKFQ9yn"
           opacity="1"
           fill="#ffb9b9"
           fill-opacity="1"
           id="use347" />
        <g
           id="g351">
          <use
             height="100%"
             width="100%"
             y="0"
             x="0"
             xlink:href="#b3YVKFQ9yn"
             opacity="1"
             fill-opacity="0"
             stroke="#000000"
             stroke-width="1"
             stroke-opacity="0"
             id="use349" />
        </g>
      </g>
    </g>
  </g>
</svg>
